 <svg version="1.0" xmlns="http://www.w3.org/2000/svg"  width="300.000000pt" height="356.000000pt" viewBox="0 0 300.000000 356.000000"  preserveAspectRatio="xMidYMid meet">  <g transform="translate(0.000000,356.000000) scale(0.050000,-0.050000)" fill="#000000" stroke="none"> <path d="M5348 7098 c-8 -15 1 -18 27 -9 31 9 40 4 38 -23 -2 -20 12 -36 32 -38 25 -3 26 -1 5 6 -16 5 -30 18 -30 29 0 10 8 15 17 9 9 -6 16 1 16 15 0 31 -86 40 -105 11z"/> <path d="M4680 6821 c-145 -77 -245 -216 -492 -681 -220 -416 -302 -531 -349 -490 -39 37 -79 39 -80 5 0 -14 -13 -2 -29 25 l-29 50 -1 -70 c-1 -108 -79 -163 -131 -92 -20 27 -26 25 -50 -20 -44 -83 -147 -123 -212 -83 -12 8 -53 19 -90 23 -37 5 -83 15 -102 23 -20 8 -35 4 -35 -9 0 -13 -33 -20 -80 -19 -78 3 -80 6 -82 75 l-2 72 -19 -66 c-26 -93 -65 -70 -79 48 -6 54 -13 78 -15 54 -11 -152 -80 -165 -85 -16 l-2 80 -24 -76 c-13 -42 -29 -70 -36 -63 -7 7 -25 -6 -39 -29 -38 -60 -76 -52 -101 20 -16 45 -26 55 -38 35 -13 -20 -17 -16 -18 15 0 59 -22 73 -52 33 -25 -32 -27 -31 -27 10 -1 58 -52 59 -83 1 -23 -42 -24 -42 -51 -5 -15 22 -39 53 -52 71 -32 40 -69 102 -141 238 -59 110 -160 295 -203 370 -127 223 -163 277 -225 331 -264 231 -442 27 -577 -661 -35 -181 -40 -814 -7 -1024 23 -149 17 -175 -66 -299 -20 -29 -36 -71 -36 -93 0 -22 -14 -45 -31 -52 -17 -6 -28 -27 -25 -47 5 -27 -6 -34 -49 -31 -30 2 -55 -5 -55 -16 0 -11 -11 -14 -25 -6 -14 8 -4 -8 21 -36 l46 -51 -52 -13 c-28 -7 -58 -9 -66 -5 -8 5 -26 -4 -40 -19 -14 -15 -18 -28 -10 -28 58 -1 70 -38 28 -83 -28 -29 -40 -35 -32 -14 17 45 -24 66 -59 31 -31 -31 -6 -74 43 -74 27 0 35 -25 14 -45 -18 -18 -69 7 -57 27 6 10 -2 18 -19 18 -16 0 -35 -9 -42 -20 -7 -11 1 -20 18 -20 39 0 55 -28 40 -68 -14 -36 -71 -44 -63 -10 3 13 -8 27 -25 32 -27 8 -27 6 0 -14 24 -19 19 -21 -27 -11 -32 7 -51 5 -45 -6 6 -10 38 -23 72 -30 84 -17 75 -49 -15 -57 -56 -4 -74 -15 -72 -40 1 -19 -8 -33 -20 -30 -13 2 -21 -11 -17 -30 3 -21 -11 -36 -40 -41 -45 -8 -45 -8 9 -31 70 -29 55 -81 -21 -71 -46 6 -44 3 14 -19 52 -20 71 -40 76 -82 5 -35 0 -51 -13 -43 -18 12 -32 -43 -23 -95 1 -8 -11 -20 -28 -27 -39 -15 -39 -85 0 -100 17 -6 30 -20 30 -30 0 -11 -7 -15 -16 -10 -8 6 -15 -7 -15 -28 0 -22 6 -39 15 -39 8 0 10 -25 4 -55 -15 -77 22 -161 82 -189 57 -26 99 -1 100 58 0 23 30 41 93 57 79 20 92 20 83 -3 -14 -39 14 -35 44 5 24 33 70 23 70 -17 0 -12 -14 -10 -34 7 -18 15 -27 17 -20 4 9 -15 -20 -40 -77 -67 -114 -55 -109 -60 68 -62 78 -1 138 -10 132 -19 -5 -9 5 -25 23 -35 52 -29 12 -39 -176 -47 -153 -6 -178 -2 -202 31 -40 54 -82 30 -133 -75 -52 -109 -58 -559 -8 -609 15 -15 27 -55 28 -90 0 -71 63 -269 157 -492 72 -172 129 -229 341 -345 83 -46 154 -90 158 -100 3 -9 19 -17 34 -17 36 0 173 -137 160 -159 -6 -9 17 -46 50 -82 42 -45 54 -72 40 -86 -31 -31 -26 -47 21 -59 24 -7 36 -21 28 -33 -7 -13 -7 -59 1 -104 8 -51 19 -73 29 -57 9 14 32 19 58 11 25 -8 37 -23 29 -36 -8 -13 -17 -46 -20 -74 -6 -51 -7 -68 -5 -136 0 -19 -5 -58 -12 -87 -9 -35 -3 -62 18 -83 18 -18 32 -56 32 -85 0 -37 13 -57 40 -64 22 -6 40 -19 40 -28 0 -41 75 -14 97 34 21 46 19 53 -19 63 -34 9 -40 21 -31 67 9 41 3 57 -21 62 -39 7 32 46 119 65 33 7 55 25 55 45 0 27 -5 29 -24 10 -35 -35 -57 -30 -42 9 10 25 2 23 -30 -9 -51 -51 -114 -40 -84 16 10 19 33 41 49 47 17 6 31 26 31 42 0 37 -32 41 -48 6 -6 -14 -6 -4 0 21 9 38 0 50 -48 69 l-60 22 61 57 c33 32 54 63 47 71 -8 8 -23 1 -33 -16 -15 -23 -18 -24 -19 -1 0 15 16 40 35 54 32 25 32 27 -10 27 -25 1 -45 11 -45 22 0 12 -8 16 -18 10 -10 -6 -23 4 -30 21 -7 18 -25 27 -42 21 -16 -6 -29 -5 -27 3 8 59 -13 107 -76 171 -76 76 -67 89 48 74 14 -1 25 5 25 15 0 10 29 19 64 20 35 1 71 15 81 33 9 17 28 31 41 31 16 -1 15 -6 -3 -18 -48 -30 16 -49 69 -21 57 31 63 59 11 59 -61 0 -65 24 -13 69 47 39 48 45 19 87 -41 58 -67 56 -146 -16 -36 -33 -79 -60 -95 -60 -32 0 -111 -41 -131 -68 -7 -9 -24 -10 -37 -2 -14 8 -32 3 -42 -12 -14 -22 -17 -23 -18 -2 0 19 -14 22 -45 12 -40 -12 -42 -10 -17 19 23 29 22 33 -12 33 -55 0 -199 73 -230 117 -14 20 -60 49 -101 64 -41 15 -75 39 -75 53 0 14 -22 39 -48 57 -27 17 -46 46 -43 65 3 19 -6 51 -21 72 -23 33 -21 43 8 65 32 25 32 28 -1 48 -20 12 -30 31 -22 44 9 14 2 17 -21 9 -19 -8 -29 -5 -23 5 7 10 3 24 -9 31 -11 7 -20 21 -20 32 0 11 8 15 18 9 10 -6 14 7 8 29 -6 22 -18 35 -27 29 -26 -16 -56 55 -49 116 4 31 -10 75 -31 102 -43 55 -34 73 39 73 41 1 46 5 22 20 -22 14 -6 20 60 21 76 1 83 4 44 20 -26 10 -41 28 -34 39 7 11 21 15 31 9 11 -6 19 4 19 22 0 26 -11 30 -45 20 -25 -8 -56 -13 -70 -12 -65 3 -82 9 -73 23 5 9 21 12 35 6 15 -5 63 -1 108 9 70 15 80 13 70 -12 -7 -20 -2 -27 16 -21 55 18 39 54 -35 75 -48 13 -78 13 -82 1 -4 -11 -18 -8 -33 6 -15 13 -22 33 -15 44 6 11 -3 8 -22 -7 -35 -29 -94 -19 -94 16 0 12 14 21 30 21 36 0 40 53 5 66 -29 10 -30 10 80 80 73 47 92 52 130 31 41 -21 42 -20 18 10 -16 18 -43 33 -60 34 -30 0 -30 2 0 20 18 10 63 13 100 5 65 -13 65 -14 17 -28 -54 -15 8 -25 150 -22 107 1 113 3 97 29 -9 14 -19 43 -22 64 -3 22 -16 45 -28 53 -14 9 -13 17 6 26 21 9 21 15 2 24 -35 16 -31 48 5 48 73 0 21 40 -55 42 -79 3 -81 4 -25 18 l60 15 -65 15 c-36 8 -65 21 -65 29 0 20 -68 18 -81 -2 -15 -23 -142 21 -128 44 6 10 26 12 45 7 29 -9 28 -7 -3 12 -20 13 -62 20 -94 16 -31 -5 -53 -2 -48 6 5 8 -6 19 -26 24 -19 5 4 10 51 12 98 2 100 31 3 38 -86 7 -95 15 -84 74 10 50 105 77 105 30 0 -11 7 -19 15 -18 8 2 24 1 35 -2 11 -3 34 -6 50 -7 17 -2 27 -15 24 -30 -4 -19 10 -23 54 -14 33 8 64 4 71 -8 21 -33 77 -26 64 9 -7 19 0 30 19 30 17 0 25 -8 19 -18 -6 -10 12 -23 39 -30 28 -7 50 -22 50 -33 0 -26 150 -6 202 27 40 25 52 74 18 74 -11 0 -20 -9 -20 -20 0 -25 -21 -25 -60 0 -21 14 -23 25 -8 35 39 27 53 159 18 172 -20 8 -30 -1 -30 -28 0 -42 -15 -48 -58 -21 -15 10 -22 26 -15 37 6 10 -31 5 -83 -13 -79 -26 -86 -33 -44 -38 69 -10 101 -44 40 -44 -45 0 -46 -1 -10 -27 36 -27 36 -29 -10 -43 -31 -10 -51 -7 -56 7 -4 13 -29 23 -56 23 -27 0 -55 14 -61 31 -7 19 -26 26 -49 18 -21 -6 -38 -4 -38 6 0 10 -52 14 -115 10 -106 -9 -112 -7 -75 21 38 29 38 31 2 28 -22 -3 -40 10 -43 31 -7 47 87 25 132 -31 26 -32 39 -36 71 -18 25 15 28 23 10 23 -18 1 -12 15 18 41 45 39 45 40 5 40 -22 0 -46 13 -52 30 -10 24 -5 25 27 5 21 -13 45 -17 52 -9 19 18 -68 94 -110 96 -19 0 -22 5 -8 11 13 5 50 -5 84 -22 92 -48 142 -42 86 10 -55 51 -56 79 -4 79 49 0 54 39 5 42 -19 1 -4 11 34 21 56 16 74 14 92 -11 28 -38 72 -41 105 -8 18 18 32 15 63 -13 39 -36 41 -35 58 11 11 30 11 53 -2 61 -11 7 -8 16 8 23 15 6 -8 5 -50 -1 -42 -6 -83 -2 -90 9 -17 26 -149 52 -133 26 7 -11 30 -20 51 -20 22 0 39 -8 39 -19 0 -10 -49 -13 -113 -6 -80 8 -109 5 -100 -11 9 -14 -9 -20 -56 -17 -96 6 -123 36 -71 83 22 20 40 48 40 63 0 36 19 34 62 -5 27 -24 44 -26 72 -10 27 16 29 21 6 22 -44 1 -139 79 -97 80 17 0 43 -13 56 -29 16 -20 38 -24 68 -13 55 21 94 7 80 -28 -11 -30 49 -69 86 -56 13 4 29 -1 36 -13 15 -24 91 -29 91 -5 0 9 -11 27 -25 41 -20 20 -18 23 10 12 71 -27 33 42 -50 91 -115 67 -115 68 -115 34 0 -20 -13 -27 -40 -20 -22 6 -35 18 -29 28 6 9 -12 23 -40 30 -28 7 -51 21 -51 32 0 12 21 15 48 8 65 -16 126 6 89 33 -19 13 -12 15 23 7 28 -6 64 -12 80 -12 27 -1 27 -3 0 -20 -16 -11 -21 -20 -10 -21 11 -1 53 -4 94 -7 75 -6 121 34 65 56 -16 6 -29 21 -29 34 0 15 11 14 33 -5 34 -28 147 -38 147 -13 0 8 -16 23 -35 34 -19 12 -26 21 -14 21 11 1 38 -11 60 -26 53 -36 144 -57 157 -36 12 19 -72 63 -120 63 -17 0 -25 9 -18 20 7 11 -6 20 -28 20 -22 0 -45 9 -53 21 -9 15 -21 14 -39 -1 -35 -29 -170 30 -147 65 2 3 -7 24 -19 48 -20 38 -16 45 36 67 33 14 55 33 49 42 -6 10 -1 18 12 18 13 0 18 14 11 33 -7 18 1 42 19 55 25 19 28 39 13 106 -20 86 -1 96 71 40 14 -11 32 -14 39 -7 7 7 2 13 -12 13 -16 0 -18 10 -6 33 21 37 -43 127 -90 127 -14 0 -27 9 -28 20 -6 40 -9 51 -26 77 -11 17 -8 33 8 43 21 13 19 33 -7 98 -41 102 -41 114 -3 82 35 -29 37 -21 10 49 -10 28 -12 51 -4 51 8 0 26 -29 39 -64 13 -35 30 -57 38 -50 7 7 4 25 -7 39 -38 47 -46 119 -13 107 31 -12 -40 124 -78 150 -10 7 -22 43 -27 80 -5 37 -3 59 6 48 9 -11 53 -45 99 -74 87 -57 159 -195 110 -212 -32 -10 -29 -54 7 -84 33 -28 41 -120 10 -120 -11 0 -20 -17 -20 -38 0 -21 -11 -43 -25 -48 -17 -7 -13 -19 15 -42 29 -23 31 -29 7 -21 -18 7 -39 2 -47 -11 -20 -33 7 -120 37 -120 15 0 43 -18 63 -40 20 -22 40 -37 44 -33 11 11 -38 113 -54 113 -7 0 -13 14 -13 30 0 17 7 30 15 30 23 0 78 -60 78 -85 0 -12 5 -16 12 -10 6 6 1 31 -12 56 -26 48 5 88 55 69 20 -7 21 0 5 29 -33 63 -23 71 30 21 l50 -47 0 54 c0 29 -11 54 -25 55 -14 2 1 8 32 15 l58 13 -73 79 c-39 43 -72 82 -72 85 0 25 118 -61 124 -89 4 -22 12 -27 21 -13 7 12 -18 57 -58 99 -76 84 -132 178 -115 194 15 15 -102 95 -139 95 -17 0 -36 9 -43 20 -7 11 9 20 34 20 25 0 68 1 96 1 39 1 43 5 20 19 -17 11 -48 14 -70 8 -32 -8 -34 -6 -11 10 26 17 24 26 -12 66 -73 80 -94 134 -47 122 22 -6 40 -18 40 -26 0 -9 21 -21 46 -27 26 -7 89 -44 140 -83 87 -67 126 -73 69 -11 -21 22 -18 24 15 11 22 -8 63 -20 90 -25 l50 -10 -40 41 c-56 56 -130 76 -130 35 0 -54 -82 -4 -95 59 -3 11 -20 22 -40 24 -73 8 -106 19 -129 42 -34 34 -107 30 -145 -7 -27 -28 -31 -28 -31 -2 0 17 10 37 22 44 16 10 14 19 -5 31 -21 13 -19 17 9 18 20 0 31 9 24 20 -7 11 1 20 17 20 16 0 34 -13 40 -30 7 -16 24 -30 40 -30 15 0 39 -13 53 -30 28 -34 60 -40 60 -11 0 10 -18 24 -40 31 -49 16 -53 69 -5 72 21 1 25 5 10 11 -14 6 -25 24 -25 40 0 17 -10 23 -23 15 -15 -9 -18 -5 -8 10 8 13 29 19 48 14 46 -14 102 33 98 83 -3 32 -10 38 -28 23 -14 -12 -20 -34 -14 -49 14 -35 -54 -40 -87 -7 -24 24 -13 79 20 100 11 8 9 30 -4 55 -20 36 -18 40 10 30 28 -11 30 -3 18 52 -14 64 40 65 80 2 6 -11 23 -15 37 -9 17 6 36 -20 53 -73 15 -46 40 -88 54 -93 14 -6 26 -35 26 -65 0 -32 20 -71 50 -97 28 -25 50 -65 50 -94 0 -68 35 -64 46 5 l8 55 3 -55 c2 -39 18 -62 51 -74 64 -25 73 -44 54 -113 l-17 -58 -21 50 -21 50 -2 -53 c0 -31 12 -58 31 -65 24 -9 30 -30 23 -77 -19 -130 72 -264 129 -191 l37 46 -9 -53 c-10 -63 58 -109 135 -90 30 8 53 4 58 -11 5 -15 21 -17 46 -6 53 22 94 14 124 -26 21 -26 33 -28 63 -10 29 18 42 15 68 -14 33 -39 113 -34 115 7 1 13 10 3 20 -22 18 -45 59 -63 59 -25 0 11 22 18 50 15 53 -4 85 -53 49 -76 -29 -18 -39 -139 -15 -186 19 -35 20 -35 47 0 45 59 38 -60 -11 -188 -43 -115 -55 -199 -20 -145 13 20 19 22 20 5 0 -14 8 -25 19 -25 10 0 18 35 17 78 -1 94 40 227 66 211 10 -6 18 -2 18 10 0 11 -9 21 -20 21 -11 0 -20 17 -20 39 0 21 -20 53 -44 70 -25 17 -34 31 -20 31 13 0 24 26 24 60 0 33 9 60 20 60 11 0 20 -22 20 -50 0 -55 19 -63 57 -25 20 20 28 19 41 -2 9 -14 24 -28 34 -30 10 -2 16 -10 13 -18 -10 -30 31 -14 43 17 10 26 18 28 42 8 17 -14 30 -17 30 -7 0 17 93 67 123 67 9 0 11 -16 5 -35 -11 -33 -10 -33 18 0 15 19 37 35 48 35 11 0 50 15 86 33 86 43 144 45 174 7 14 -16 25 -20 25 -8 1 34 73 109 90 93 8 -8 30 -15 48 -16 73 -2 183 -35 183 -54 0 -11 13 -9 30 5 21 17 30 18 30 2 0 -30 134 -28 147 3 5 14 11 5 11 -20 1 -26 15 -45 32 -45 17 0 30 -9 30 -19 0 -11 14 -15 30 -8 21 8 30 -2 30 -34 l0 -46 47 45 48 44 -10 -51 c-5 -28 -1 -51 9 -51 29 0 64 43 55 67 -4 13 15 39 42 60 l51 36 -11 -56 c-6 -32 -6 -46 0 -33 6 13 25 18 42 12 17 -7 39 1 49 16 14 23 17 22 18 -5 0 -19 -7 -37 -15 -40 -31 -14 -89 -138 -61 -132 15 3 24 -10 20 -30 -3 -21 7 -35 25 -35 17 0 31 -9 31 -20 0 -11 -10 -20 -23 -20 -13 0 -19 -5 -13 -11 31 -31 122 24 184 111 87 121 154 251 138 268 -7 6 -2 12 11 12 13 0 40 27 61 61 34 56 38 58 48 20 5 -23 2 -46 -8 -52 -10 -6 -13 -31 -7 -55 6 -27 -12 -88 -48 -158 -43 -84 -51 -116 -32 -123 39 -16 3 -141 -59 -202 -73 -74 -67 -98 21 -82 l74 14 -33 -46 c-79 -110 -79 -114 -4 -108 103 8 127 -33 62 -110 -64 -77 -67 -106 -7 -88 45 14 45 14 7 -28 -38 -43 -38 -43 6 -43 24 0 39 -8 33 -19 -6 -10 -3 -23 7 -30 31 -19 103 -173 98 -208 -5 -24 9 -33 49 -32 71 1 70 -2 -20 -50 l-75 -39 63 -1 c37 -1 67 -13 74 -31 13 -35 98 -40 154 -9 27 14 39 14 39 0 0 -12 14 -21 30 -21 17 0 30 -9 30 -20 0 -27 -47 -25 -74 2 -16 16 -37 5 -77 -39 -30 -34 -61 -58 -70 -53 -8 5 -26 -4 -39 -20 -32 -39 -128 -41 -114 -2 9 22 -4 24 -63 11 -78 -18 -135 8 -65 30 56 18 54 50 -3 39 l-45 -9 45 20 c53 23 61 68 10 54 -98 -28 -209 -36 -196 -15 7 12 35 22 61 22 26 0 53 9 60 20 7 12 21 16 30 10 10 -6 16 7 15 30 -3 39 -35 59 -35 22 0 -10 -39 -18 -87 -17 -48 1 -97 -5 -110 -13 -33 -21 -28 -72 7 -72 17 0 30 -9 30 -20 0 -11 -17 -20 -39 -20 -65 0 -65 -35 1 -44 37 -6 89 5 132 29 63 33 70 34 59 5 -7 -18 -13 -45 -13 -58 0 -14 -24 -38 -54 -54 -120 -62 -132 -89 -67 -160 44 -49 69 -60 106 -51 77 19 203 -23 174 -58 -13 -16 -41 -29 -61 -29 -21 0 -38 -9 -38 -20 0 -11 11 -20 24 -20 18 0 18 -6 2 -22 -16 -16 -40 -17 -80 -3 -43 15 -63 13 -82 -8 -42 -44 -7 -70 83 -62 46 4 110 2 143 -6 l60 -14 -66 -15 c-42 -10 -59 -23 -48 -34 12 -12 34 -10 58 5 28 18 63 19 134 3 84 -18 100 -15 128 18 33 38 117 55 95 19 -7 -10 3 -27 21 -37 19 -10 27 -29 19 -42 -7 -12 -22 -17 -33 -11 -10 6 -13 20 -7 30 6 11 -2 19 -19 19 -40 0 -63 -41 -32 -60 17 -11 18 -19 2 -29 -12 -7 -31 -8 -42 -1 -11 7 -20 3 -20 -9 0 -11 25 -21 56 -21 61 0 164 -41 164 -65 0 -23 -26 -17 -69 16 -45 33 -91 38 -91 9 0 -11 18 -20 40 -20 44 0 54 -31 15 -47 -14 -5 11 -11 56 -11 120 -3 118 -105 -3 -124 -53 -8 -62 -14 -28 -16 28 -2 77 -16 110 -31 l60 -28 -84 -1 c-46 -1 -90 -12 -98 -25 -10 -16 7 -19 59 -9 40 8 73 7 73 -2 0 -19 95 -65 139 -68 75 -5 -82 -35 -209 -40 -104 -4 -118 -7 -55 -13 47 -4 85 -14 85 -21 -1 -26 -30 -55 -80 -78 -30 -14 -38 -24 -19 -25 17 0 49 12 70 28 27 20 64 25 117 17 61 -9 75 -6 68 16 -6 18 -32 26 -73 21 -35 -3 -63 2 -63 12 0 16 146 30 306 31 88 0 60 59 -36 79 -59 11 -89 31 -114 75 l-34 60 82 -13 c60 -9 78 -7 68 10 -8 13 -27 23 -42 23 -15 0 -33 17 -39 37 -6 20 -34 49 -62 64 -28 14 -46 38 -41 52 6 15 -1 21 -19 14 -18 -7 -29 1 -29 21 0 42 73 42 97 -1 10 -18 49 -44 86 -56 37 -13 65 -34 62 -48 -4 -14 3 -20 15 -13 35 22 23 145 -17 174 -23 16 -43 64 -52 126 -8 55 -20 109 -27 119 -6 11 -14 45 -18 77 -3 32 -23 96 -43 141 -20 46 -35 103 -33 127 2 24 -9 49 -23 55 -15 5 -27 30 -28 55 0 25 -13 63 -28 83 -16 20 -24 48 -19 61 5 13 -21 59 -59 103 -65 76 -73 90 -73 125 0 9 -26 43 -57 75 -45 46 -63 92 -84 209 -29 163 -77 304 -78 227 -1 -58 -52 -100 -69 -56 -38 100 2 249 47 174 16 -26 18 5 6 115 -8 83 -13 206 -10 275 26 697 6 906 -125 1254 -112 297 -236 375 -430 272z m69 -164 c-10 -32 -7 -38 14 -25 41 26 80 28 121 6 47 -25 46 -59 -3 -72 -37 -10 -71 -62 -52 -81 5 -5 24 5 42 24 54 53 60 16 7 -42 l-48 -52 54 9 c30 6 50 3 44 -7 -6 -9 10 -17 36 -18 42 0 43 -2 11 -27 -19 -14 -35 -41 -35 -59 0 -18 -9 -33 -20 -33 -11 0 -20 -9 -20 -20 0 -26 68 -15 105 16 25 21 32 14 42 -37 16 -77 -21 -136 -116 -187 -74 -40 -92 -72 -42 -72 24 0 24 -10 -5 -60 -19 -33 -41 -60 -49 -60 -8 0 -15 -13 -15 -30 0 -16 -9 -30 -21 -30 -11 0 -42 -14 -68 -32 -51 -32 -49 -88 2 -88 16 0 25 -8 19 -17 -6 -10 -34 -13 -62 -8 -29 6 -50 0 -50 -13 0 -12 11 -22 23 -22 14 0 7 -20 -15 -45 -22 -25 -52 -69 -67 -99 -58 -117 -250 -194 -208 -84 6 15 1 28 -12 28 -13 0 -17 11 -9 25 8 14 7 18 -2 10 -9 -8 -30 -3 -46 10 -24 20 -32 20 -39 0 -5 -14 -17 -25 -28 -25 -11 0 -13 10 -5 23 8 13 0 34 -18 46 -56 41 -94 184 -60 226 26 32 27 32 16 -10 -8 -26 -4 -45 9 -45 11 0 21 10 21 22 0 32 64 164 96 196 15 15 22 46 17 68 -8 28 14 68 68 130 43 49 79 100 79 112 0 13 18 39 40 57 50 44 50 65 0 101 -26 18 -36 41 -28 61 13 36 88 -37 88 -86 0 -13 9 -18 20 -11 12 7 16 21 10 31 -12 18 27 99 58 122 9 7 19 29 21 50 3 34 72 167 87 167 4 0 1 -19 -7 -43z m357 -868 c-31 -56 -40 -89 -25 -89 18 0 18 -8 -2 -31 -14 -17 -37 -26 -52 -21 -14 6 -35 -6 -46 -26 -26 -49 -2 -70 31 -27 15 19 27 25 27 13 1 -13 -17 -45 -39 -73 -22 -28 -40 -58 -40 -67 0 -8 -15 -31 -33 -51 -20 -22 -24 -37 -10 -37 13 0 8 -15 -12 -35 -19 -20 -56 -62 -81 -95 -45 -57 -46 -57 -32 -10 8 28 16 96 18 153 3 136 101 347 160 347 6 0 29 19 52 42 83 83 -26 93 -117 12 -25 -23 -45 -31 -45 -18 0 28 108 110 153 116 18 3 42 15 53 26 61 61 92 -37 40 -129z m-3026 -80 c0 -16 -13 -29 -28 -29 -36 0 -57 55 -26 66 33 12 54 -3 54 -37z m1995 -141 c-7 -36 -4 -45 11 -30 39 39 74 26 57 -21 -16 -43 -83 -71 -83 -35 0 10 -7 16 -15 13 -22 -7 -23 28 -3 80 23 61 45 57 33 -7z m1066 -456 c-12 -30 -29 -49 -40 -43 -28 18 -15 110 19 131 39 25 49 -15 21 -88z m-4051 -672 c46 -51 31 -67 -37 -41 -53 20 -65 42 -40 68 22 21 39 15 77 -27z m4249 -34 c23 -84 20 -92 -26 -74 -44 16 -44 148 -1 148 4 0 15 -33 27 -74z m73 -156 c7 -27 21 -50 32 -50 11 0 15 -13 9 -29 -6 -17 -3 -35 8 -42 26 -16 24 -69 -2 -69 -12 0 -16 9 -9 20 7 11 3 20 -9 20 -11 0 -21 23 -21 50 0 35 -11 50 -37 50 -29 0 -35 11 -28 50 5 28 17 50 27 50 9 0 23 -22 30 -50z m148 -358 c0 -15 -18 -32 -40 -38 -39 -10 -56 24 -27 53 24 23 67 14 67 -15z m-4840 -75 c0 -25 -48 -21 -76 7 -40 40 -27 56 26 32 28 -12 50 -30 50 -39z m4680 3 c0 -11 -14 -20 -31 -20 -24 0 -22 -9 10 -44 39 -41 49 -66 43 -102 -1 -9 14 -7 35 4 21 12 43 15 50 8 7 -7 14 -2 16 11 1 13 3 34 5 48 3 35 92 45 92 10 0 -15 -11 -38 -24 -51 -25 -25 -15 -45 27 -51 53 -8 44 -43 -14 -54 -54 -10 -55 -12 -16 -26 24 -8 55 -12 69 -9 14 3 29 -10 33 -29 5 -20 -3 -34 -19 -34 -38 3 -191 76 -161 78 45 2 26 41 -20 41 -25 0 -58 9 -74 19 -19 12 -34 12 -42 -1 -7 -11 -39 -21 -71 -24 -32 -2 -70 -20 -84 -39 -38 -50 -60 -43 -49 15 8 39 1 50 -29 50 -21 0 -48 10 -59 21 -16 16 -46 15 -106 -1 -101 -27 -98 -29 -86 64 6 51 21 78 47 85 21 6 57 16 81 23 38 11 41 6 33 -50 -7 -49 -2 -62 26 -62 56 0 99 23 85 45 -9 14 11 17 60 9 77 -12 116 12 58 36 -32 13 -32 16 5 31 56 23 110 23 110 -1z m-21 -357 c-44 -86 -53 -92 -108 -71 -29 11 -29 15 3 40 22 16 26 27 11 27 -14 1 -25 11 -25 22 0 12 9 16 20 9 11 -7 20 2 20 19 0 18 17 31 40 31 22 0 40 11 40 24 0 17 6 18 21 3 15 -15 9 -46 -22 -104z m96 -10 c15 -9 53 -10 85 -3 41 9 69 4 89 -17 27 -26 15 -29 -104 -25 -106 4 -136 11 -141 37 -6 33 26 36 71 8z m-3742 -2083 c32 -33 23 -60 -30 -88 -30 -17 -34 -10 -27 50 9 77 15 80 57 38z m-278 -183 c72 -19 52 -47 -35 -47 -77 0 -107 26 -55 47 35 14 39 14 90 0z"/> <path d="M4729 6172 c-21 -16 -33 -35 -25 -43 8 -7 38 5 68 29 60 47 20 60 -43 14z"/> <path d="M4835 6117 c-52 -34 -95 -70 -95 -79 0 -10 -12 -18 -27 -18 -15 0 -53 -22 -85 -50 -32 -27 -65 -50 -74 -50 -9 0 -8 -15 3 -34 14 -24 8 -43 -24 -71 -43 -37 -42 -37 13 -3 33 20 52 45 45 62 -6 15 5 34 24 42 66 28 185 108 185 124 0 9 41 36 90 60 50 24 90 52 90 62 0 33 -49 18 -145 -45z"/> <path d="M4421 5931 c-27 -28 -37 -51 -23 -51 34 0 87 55 78 81 -4 12 -28 -2 -55 -30z"/> <path d="M4706 5886 c-58 -20 -80 -37 -73 -57 12 -31 40 -39 50 -13 4 8 37 30 74 47 90 43 54 59 -51 23z"/> <path d="M1452 6146 c-19 -19 91 -86 142 -86 24 0 49 -9 56 -20 19 -31 50 -24 50 11 0 17 -9 26 -20 19 -11 -7 -20 -2 -20 11 0 13 -13 18 -30 12 -21 -8 -30 1 -30 30 0 34 -5 37 -29 18 -20 -17 -40 -18 -67 -3 -21 11 -44 15 -52 8z"/> <path d="M1525 5696 c9 -29 213 -144 228 -129 14 14 -176 152 -210 153 -14 0 -23 -11 -18 -24z"/> <path d="M1698 5422 c28 -86 39 -99 85 -97 50 1 52 4 32 63 -28 84 -52 112 -86 99 -16 -6 -29 -1 -29 11 0 12 -7 22 -17 22 -9 0 -2 -44 15 -98z"/> <path d="M2035 5294 c-10 -66 22 -110 49 -68 25 39 18 109 -12 120 -19 8 -31 -8 -37 -52z"/> <path d="M2699 5314 c-27 -37 -27 -52 -6 -94 16 -32 19 -56 6 -69 -25 -25 -25 -125 1 -141 11 -7 21 12 21 44 1 31 6 112 11 181 11 140 10 141 -33 79z"/> <path d="M5660 5319 c0 -12 8 -16 18 -10 9 6 29 -4 43 -21 22 -25 22 -34 1 -47 -19 -11 -20 -20 -4 -30 39 -24 48 49 11 90 -39 43 -69 51 -69 18z"/> <path d="M3913 5238 c-17 -23 -39 -37 -50 -30 -20 13 -55 -103 -36 -121 20 -20 53 15 53 56 0 23 16 45 39 51 22 6 37 26 35 48 -3 48 -5 47 -41 -4z"/> <path d="M2268 5215 c7 -25 6 -34 0 -20 -6 14 -20 25 -31 25 -33 0 3 -168 44 -203 21 -18 39 -48 39 -65 0 -18 10 -32 22 -32 12 0 18 12 12 27 -6 16 -16 72 -23 125 -20 153 -30 188 -53 188 -11 0 -16 -20 -10 -45z"/> <path d="M1926 5178 c8 -30 3 -38 -17 -30 -97 40 -95 40 -73 0 11 -21 47 -63 80 -94 l59 -57 9 50 c6 27 -2 77 -16 111 -29 70 -58 84 -42 20z"/> <path d="M4040 5140 c-24 -33 -51 -55 -61 -49 -10 6 -13 -2 -7 -19 8 -21 1 -26 -28 -19 -22 6 -46 0 -54 -13 -11 -17 -3 -20 27 -11 28 9 43 5 43 -10 0 -18 7 -18 30 1 16 13 25 31 20 40 -16 26 43 61 82 48 29 -9 31 -7 10 8 -15 11 -22 34 -16 52 19 49 1 38 -46 -28z"/> <path d="M1638 5132 c13 -15 21 -37 18 -48 -3 -11 2 -20 11 -20 9 0 43 -25 75 -56 32 -30 58 -47 58 -36 0 45 -126 186 -167 187 -10 1 -7 -12 5 -27z"/> <path d="M1771 5117 c14 -44 84 -115 115 -116 26 -1 -47 110 -90 137 -36 22 -38 20 -25 -21z"/> <path d="M3122 5126 c-1 -13 -26 -22 -57 -20 -72 5 -88 -83 -28 -147 l40 -43 21 41 c12 22 22 54 22 72 0 17 14 31 30 31 17 0 30 -11 30 -24 0 -13 18 -4 40 19 55 59 50 72 -19 58 -37 -7 -62 -2 -68 13 -7 18 -10 18 -11 0z"/> <path d="M4149 5074 c-7 -19 -44 -49 -82 -67 -41 -19 -62 -40 -52 -50 21 -21 85 -1 85 26 0 11 9 14 20 7 11 -7 26 2 32 19 17 42 48 39 48 -5 0 -21 -24 -44 -60 -58 -78 -29 -78 -75 0 -78 38 -1 60 8 60 25 0 15 10 27 21 27 12 0 16 9 9 20 -7 11 1 20 17 20 26 0 83 116 66 134 -4 4 -32 -4 -62 -17 -44 -20 -57 -20 -71 4 -15 23 -20 22 -31 -7z"/> <path d="M4869 5071 c-30 -23 -32 -30 -9 -31 24 -1 22 -6 -5 -22 -20 -11 -31 -28 -25 -38 6 -10 37 6 69 35 78 73 53 119 -30 56z"/> <path d="M2640 5059 c0 -12 -9 -16 -20 -9 -12 7 -20 -17 -20 -60 0 -43 -8 -67 -20 -60 -11 7 -20 2 -20 -10 0 -49 -39 6 -52 73 -9 49 -18 63 -30 44 -22 -36 -1 -121 38 -152 18 -14 22 -25 9 -25 -15 0 -17 -18 -7 -55 9 -30 12 -66 7 -80 -4 -14 1 -25 12 -25 12 0 27 34 35 75 8 41 24 82 36 90 14 9 12 14 -7 15 -23 0 -23 4 3 25 30 24 70 175 47 175 -6 0 -11 -10 -11 -21z"/> <path d="M4383 4971 c-34 -37 -63 -86 -63 -108 0 -41 -49 -103 -81 -103 -10 0 -17 -22 -14 -50 2 -27 11 -50 20 -50 23 0 135 111 135 135 0 11 13 31 29 44 16 13 24 37 18 53 -6 15 3 50 21 77 49 76 6 77 -65 2z"/> <path d="M1500 5003 c0 -11 10 -27 22 -34 12 -7 16 -34 10 -59 -7 -28 0 -55 18 -70 17 -14 30 -19 30 -12 0 7 29 -2 65 -20 65 -33 65 -33 29 7 -28 31 -30 43 -10 50 21 7 21 15 -1 41 -15 19 -23 46 -17 62 7 16 -2 34 -19 40 -44 17 -47 15 -33 -20 11 -29 6 -29 -41 2 -29 19 -53 25 -53 13z"/> <path d="M3340 4961 c0 -15 -13 -37 -30 -49 -29 -22 -121 -348 -102 -366 5 -6 19 29 31 77 12 48 31 103 42 122 34 61 82 218 70 230 -6 7 -11 0 -11 -14z"/> <path d="M4770 4860 c-63 -66 -35 -85 30 -20 34 34 54 80 34 80 -4 0 -32 -27 -64 -60z"/> <path d="M3745 4875 c-33 -41 -50 -115 -26 -115 11 0 21 2 21 5 0 3 8 34 19 70 20 70 17 79 -14 40z"/> <path d="M4520 4882 c0 -9 -17 -22 -37 -27 -44 -12 -72 -135 -31 -135 14 0 31 9 38 20 7 12 20 16 28 11 8 -5 16 2 16 15 1 13 8 49 16 79 9 36 7 55 -8 55 -12 0 -22 -8 -22 -18z"/> <path d="M1420 4834 c0 -14 11 -38 25 -52 21 -22 17 -23 -24 -1 l-50 25 37 -56 c32 -49 33 -55 4 -44 -43 17 -92 -4 -92 -38 0 -29 2 -30 73 -38 33 -3 41 4 32 28 -11 29 -9 29 26 2 36 -28 37 -27 12 4 -22 29 -20 39 14 68 23 20 35 47 28 66 -21 57 -85 84 -85 36z"/> <path d="M1910 4784 c5 -15 10 -36 10 -46 0 -10 9 -18 19 -18 11 0 15 14 8 30 -6 17 -1 30 11 30 12 0 22 8 22 19 0 10 -18 17 -40 15 -26 -1 -37 -13 -30 -30z"/> <path d="M3095 4737 c-64 -90 -71 -128 -19 -95 39 24 92 126 81 156 -4 9 -32 -18 -62 -61z"/> <path d="M4570 4733 c-45 -17 -58 -34 -54 -67 5 -31 -10 -52 -48 -72 -36 -19 -46 -33 -30 -43 13 -8 37 -3 54 10 23 20 35 20 54 1 18 -18 18 -27 -3 -40 -19 -12 -21 -21 -5 -31 34 -21 106 9 95 39 -6 14 7 42 28 61 70 63 46 96 -28 40 -72 -55 -93 -62 -93 -31 0 10 21 24 46 31 26 6 62 38 82 70 40 68 17 75 -98 32z"/> <path d="M4020 4701 c0 -11 -13 -15 -30 -8 -20 7 -30 -1 -30 -26 -1 -26 -5 -30 -17 -12 -12 20 -32 20 -94 -3 -44 -16 -64 -30 -47 -31 27 -1 30 -15 18 -81 -15 -84 -6 -97 39 -55 21 21 24 16 14 -28 -11 -45 -7 -52 25 -43 21 5 44 0 51 -12 7 -12 3 -22 -9 -22 -12 0 -17 -8 -11 -19 6 -10 -8 -32 -33 -50 -69 -48 14 -43 127 9 101 45 146 51 125 15 -8 -14 -7 -18 3 -10 9 9 17 45 18 80 1 58 10 68 86 92 47 15 85 35 85 46 0 11 -10 13 -22 6 -12 -8 -30 -2 -40 13 -14 22 -17 21 -18 -7 0 -29 -24 -46 -45 -32 -3 2 -43 -20 -90 -50 -100 -63 -124 -67 -75 -13 20 22 26 40 14 40 -12 0 -27 -8 -33 -18 -5 -9 -28 -22 -49 -27 -39 -11 -44 13 -13 63 13 22 9 26 -19 15 -30 -12 -32 -9 -10 17 14 17 20 36 14 43 -15 15 35 67 65 67 11 0 21 14 21 30 0 17 -4 30 -10 30 -5 0 -10 -9 -10 -19z"/> <path d="M1691 4639 c19 -22 27 -39 17 -39 -28 0 79 -52 138 -67 38 -10 54 -6 53 12 -1 34 -91 135 -122 135 -19 0 -20 -5 -1 -24 32 -32 30 -49 -6 -49 -16 0 -30 11 -30 24 0 13 -19 29 -42 35 -40 11 -40 10 -7 -27z"/> <path d="M2149 4639 c-7 -12 -26 -17 -41 -11 -30 11 -39 -19 -12 -36 80 -49 185 -24 126 30 -47 44 -55 46 -73 17z"/> <path d="M1239 4611 c17 -21 18 -39 2 -69 -28 -53 24 -83 143 -80 47 2 69 7 49 12 -26 7 -34 23 -28 57 6 29 -2 51 -19 58 -18 7 -23 2 -14 -14 11 -20 8 -20 -13 0 -15 14 -43 25 -63 25 -20 0 -36 9 -36 20 0 11 -10 20 -22 20 -16 0 -16 -8 1 -29z"/> <path d="M1533 4591 c-11 -29 32 -75 97 -101 35 -14 36 -17 6 -24 -21 -5 -29 -20 -22 -39 9 -24 -1 -27 -59 -17 -43 8 -76 5 -84 -8 -8 -13 -1 -17 17 -10 17 7 72 -4 122 -23 107 -41 96 -69 -33 -84 -106 -12 -104 -9 -76 -70 18 -38 43 -53 105 -61 99 -14 133 2 84 39 -44 31 -5 55 74 44 27 -4 59 9 78 32 35 42 155 -5 128 -50 -7 -10 2 -13 19 -7 40 16 40 88 0 88 -17 0 -26 9 -19 20 7 12 -13 20 -49 20 -33 0 -61 -9 -61 -19 0 -11 -15 -14 -34 -7 -21 9 -25 16 -10 21 15 5 8 22 -21 46 -43 36 -43 38 -5 39 37 1 36 4 -10 40 -61 48 -95 52 -57 7 24 -30 23 -31 -17 -10 -24 12 -49 39 -55 58 -19 55 -105 111 -118 76z"/> <path d="M4707 4554 c-104 -106 -95 -223 11 -156 43 28 94 -29 62 -69 -14 -16 -17 -29 -6 -29 32 0 63 44 52 73 -7 19 0 24 27 16 35 -11 34 -10 -1 12 -33 21 -35 28 -9 47 54 40 64 97 11 64 -39 -25 -154 -39 -154 -20 0 23 89 105 103 96 9 -6 17 -1 17 11 0 39 -50 19 -113 -45z"/> <path d="M3398 4560 c-5 -40 -9 -50 -24 -74 -8 -13 -6 -28 4 -35 14 -8 62 85 62 122 0 17 -40 5 -42 -13z"/> <path d="M2900 4529 c0 -6 14 -32 32 -59 17 -26 25 -59 16 -73 -10 -16 -4 -20 19 -11 24 9 33 2 33 -30 0 -43 1 -43 29 -5 39 51 39 89 1 89 -17 0 -40 23 -50 50 -16 42 -80 73 -80 39z"/> <path d="M2094 4401 c-53 -53 -64 -120 -25 -155 10 -9 12 -7 5 5 -6 12 16 32 49 44 55 21 62 19 72 -18 8 -31 15 -34 28 -14 14 23 20 22 34 0 14 -21 24 -18 48 16 l30 43 11 -42 c7 -26 0 -47 -18 -53 -32 -13 -39 -67 -8 -67 11 0 20 -15 20 -33 0 -76 25 -1 32 94 8 115 -43 209 -66 122 -14 -57 -40 -55 -38 2 2 31 -8 43 -31 39 -19 -3 -46 12 -61 33 -26 38 -29 37 -82 -16z"/> <path d="M3536 4402 c-19 -27 -30 -56 -24 -65 6 -9 2 -17 -9 -17 -11 0 -14 -20 -8 -44 11 -42 13 -41 32 15 10 32 28 65 38 71 10 7 16 30 12 50 -7 35 -11 34 -41 -10z"/> <path d="M4900 4365 c0 -12 -18 -28 -40 -35 -22 -7 -40 -26 -40 -41 0 -38 -55 -37 -93 1 -17 17 -38 25 -49 19 -31 -19 -20 -101 19 -136 44 -40 65 -42 51 -5 -6 15 -2 34 10 41 28 17 124 -9 111 -31 -27 -43 30 -13 59 31 45 69 5 106 -60 56 -11 -8 2 6 29 31 36 35 43 52 26 69 -17 17 -23 17 -23 0z"/> <path d="M3366 4271 c3 -73 16 -111 49 -144 l45 -45 0 44 c0 25 -12 63 -27 85 -15 21 -37 66 -49 99 -20 56 -21 54 -18 -39z"/> <path d="M4569 4310 c-51 -42 -54 -49 -19 -49 40 0 118 38 80 39 -11 0 -8 8 7 18 15 9 19 22 9 28 -10 7 -45 -10 -77 -36z"/> <path d="M2933 4327 c-28 -29 -13 -124 22 -133 27 -7 25 -10 -9 -12 -45 -2 -80 59 -56 98 7 11 3 20 -9 20 -11 0 -21 -10 -21 -21 0 -12 -11 -15 -23 -7 -17 10 -19 3 -9 -24 23 -56 29 -128 12 -138 -8 -5 -15 -98 -14 -207 0 -175 -5 -202 -43 -240 -50 -50 -54 -74 -16 -89 17 -7 40 20 63 72 21 46 40 73 45 60 4 -13 -7 -50 -24 -84 -39 -75 -39 -102 -1 -102 18 0 30 19 30 49 0 27 9 54 20 61 12 7 15 21 9 32 -6 10 -12 56 -12 103 0 47 -8 119 -17 160 -12 59 -10 75 12 75 15 0 28 -10 28 -21 0 -12 9 -16 20 -9 11 7 20 -6 20 -28 0 -22 9 -45 20 -52 11 -7 20 -27 20 -45 0 -47 83 -161 125 -172 20 -5 36 -29 37 -56 2 -43 3 -43 15 -7 8 26 31 40 63 40 60 0 77 56 30 103 -23 23 -26 39 -11 54 31 31 26 92 -9 106 -16 6 -30 24 -30 39 0 15 -9 28 -20 28 -25 0 -26 -54 -1 -63 36 -13 46 -111 12 -124 -17 -7 -31 -1 -31 13 -1 15 -8 13 -22 -6 -16 -23 -19 -14 -10 37 10 54 6 65 -18 56 -17 -7 -30 -3 -30 8 0 10 -11 17 -23 14 -14 -3 -32 33 -42 82 -13 62 -26 83 -46 75 -17 -6 -29 1 -29 17 0 38 34 58 46 26 5 -14 8 9 7 50 -1 59 -9 75 -37 75 -29 0 -34 10 -24 50 12 50 6 62 -19 37z"/> <path d="M4390 4296 c-22 -13 -76 -26 -120 -28 -44 -3 -104 -11 -133 -18 -33 -8 -58 -4 -68 11 -10 16 -7 20 8 11 13 -8 23 -4 23 8 0 13 -20 20 -45 16 -25 -3 -45 -19 -45 -34 0 -16 -36 -44 -80 -64 -44 -19 -68 -36 -54 -37 15 0 46 9 69 22 32 17 45 17 51 0 4 -13 24 -23 45 -23 27 0 34 -10 25 -35 -7 -19 -5 -29 3 -21 9 8 32 6 50 -4 37 -19 175 19 198 54 7 12 33 27 58 35 25 7 45 27 45 43 0 16 13 34 30 41 16 6 25 19 19 29 -15 23 -30 22 -79 -6z"/> <path d="M2571 4230 c-7 -40 -18 -86 -24 -101 -6 -16 -2 -29 9 -29 11 0 26 41 33 92 17 110 2 141 -18 38z"/> <path d="M1112 4173 c6 -18 43 -41 82 -52 39 -10 83 -35 100 -55 16 -20 23 -25 16 -11 -7 14 -2 25 10 25 45 0 -2 37 -65 51 -35 8 -85 28 -110 44 -41 27 -44 27 -33 -2z"/> <path d="M2230 4105 c9 -69 7 -87 -8 -65 -18 25 -21 23 -22 -12 0 -99 54 -38 58 65 2 68 -4 107 -18 107 -15 0 -18 -31 -10 -95z"/> <path d="M1394 4142 c6 -24 1 -42 -12 -42 -12 0 -22 -9 -22 -20 0 -11 41 -20 90 -20 68 0 90 8 90 31 0 17 9 26 20 19 11 -7 20 -4 20 6 0 11 -25 24 -55 31 -30 7 -75 18 -99 24 -36 11 -42 6 -32 -29z"/> <path d="M4370 4086 c-22 -5 -84 -23 -139 -40 l-98 -32 72 -28 c43 -17 69 -40 63 -54 -6 -17 10 -25 49 -25 35 0 56 9 51 22 -15 39 82 153 108 127 27 -27 54 -9 35 23 -13 21 -67 24 -141 7z"/> <path d="M2721 4061 c-16 -10 -36 -14 -43 -9 -15 9 -50 -241 -41 -289 3 -15 -4 -21 -16 -14 -11 7 -21 0 -21 -17 0 -43 34 -57 48 -20 7 17 12 69 12 115 1 61 6 75 20 53 16 -24 19 -21 20 16 0 25 13 76 29 115 16 38 27 69 25 69 -2 0 -17 -9 -33 -19z"/> <path d="M2281 3997 c-46 -63 -50 -205 -6 -235 10 -7 24 -30 33 -51 12 -33 17 -35 32 -11 15 25 19 25 27 -1 6 -16 14 -42 20 -59 5 -16 11 -1 11 34 2 59 42 120 42 63 0 -16 7 -18 19 -6 29 30 -6 158 -45 165 -23 5 -34 -6 -34 -36 0 -24 -13 -56 -30 -73 -18 -18 -30 -21 -30 -7 0 12 -9 17 -20 10 -30 -18 -24 73 10 171 38 106 30 116 -29 36z"/> <path d="M3492 4046 c-6 -7 -6 -34 1 -62 11 -43 7 -49 -28 -40 -29 8 -48 -3 -66 -36 -29 -55 -6 -96 23 -43 11 19 31 35 44 35 68 1 111 90 64 134 -14 13 -31 18 -38 12z"/> <path d="M1388 4010 c45 -46 40 -56 -18 -42 -57 15 -67 -16 -15 -46 30 -18 26 -21 -25 -23 l-60 -2 58 -18 c62 -18 142 9 121 42 -6 10 0 19 15 19 19 1 18 6 -4 20 -25 16 -24 19 9 20 52 0 17 31 -56 48 -53 13 -55 11 -25 -18z"/> <path d="M2593 3999 c-19 -23 -42 -36 -52 -30 -21 14 -49 -60 -32 -87 6 -10 3 -22 -6 -25 -10 -4 -11 -25 -3 -47 14 -37 17 -36 37 15 12 30 31 55 42 55 17 0 67 140 54 153 -3 3 -21 -12 -40 -34z"/> <path d="M1890 3960 c-7 -11 8 -28 34 -38 57 -22 69 -12 36 28 -29 35 -52 38 -70 10z"/> <path d="M3302 3906 c11 -30 15 -75 9 -100 -9 -34 -4 -42 19 -33 33 12 42 107 10 107 -11 0 -20 18 -20 40 0 22 -9 40 -20 40 -12 0 -12 -20 2 -54z"/> <path d="M3709 3891 c-36 -27 -30 -30 71 -30 110 -1 110 -1 53 29 -71 37 -76 37 -124 1z"/> <path d="M1828 3876 c-92 -19 -168 -80 -168 -134 0 -41 -66 -109 -87 -89 -7 8 -13 4 -13 -9 0 -12 17 -33 37 -48 21 -14 44 -48 53 -76 28 -89 73 -140 123 -140 29 0 44 -9 37 -20 -7 -12 20 -2 61 21 82 45 129 40 129 -16 0 -35 -64 -105 -97 -105 -8 0 -44 -32 -79 -71 -71 -81 -102 -78 -94 11 5 59 -16 79 -41 39 -7 -11 0 -35 14 -53 23 -28 21 -30 -18 -18 -29 10 -45 6 -45 -9 0 -15 -18 -19 -52 -10 -32 8 -47 5 -39 -8 7 -11 44 -19 82 -17 103 4 120 -66 23 -92 -75 -20 -149 -15 -114 8 24 16 22 19 -14 20 -24 0 -49 9 -56 20 -7 11 3 14 24 7 31 -11 30 -8 -4 19 -22 17 -43 23 -47 13 -3 -11 -25 -19 -48 -19 -42 0 -42 -1 -4 -29 37 -28 36 -30 -21 -33 -59 -3 -59 -3 15 -24 42 -12 73 -31 68 -43 -9 -27 -96 -18 -167 19 -64 34 -106 38 -106 11 0 -10 20 -22 45 -26 45 -8 45 -8 -5 -30 l-50 -22 55 -2 c30 0 55 8 55 19 0 22 92 -13 142 -54 46 -38 93 -32 108 14 7 22 22 35 32 29 11 -7 34 -1 51 13 28 23 27 28 -6 41 -33 13 -33 14 6 16 24 0 47 -10 52 -23 5 -17 30 -11 83 20 82 49 113 57 76 20 -30 -30 -32 -63 -3 -45 19 12 63 98 67 133 1 8 13 25 27 39 14 14 25 32 25 40 0 8 20 45 45 82 25 36 67 134 94 216 59 179 53 171 91 139 33 -28 40 -6 11 39 -10 17 -25 24 -33 16 -8 -8 -44 33 -81 90 -75 116 -117 136 -239 111z m44 -154 c-41 -45 -42 -122 -2 -122 17 0 30 -9 30 -20 0 -27 47 -25 75 3 25 25 -1 116 -41 141 -12 7 -17 19 -10 26 22 22 96 -57 96 -103 0 -134 -152 -215 -240 -127 -75 75 -49 210 48 251 71 30 93 6 44 -49z"/> <path d="M4300 3830 c0 -21 20 -30 65 -29 61 0 63 2 26 30 -50 37 -91 37 -91 -1z"/> <path d="M919 3818 c-56 -16 -44 -20 76 -27 48 -3 90 1 95 10 13 21 -112 33 -171 17z"/> <path d="M3579 3814 c-17 -13 -53 -62 -78 -108 -26 -46 -53 -81 -60 -77 -19 12 -46 -11 -97 -84 -60 -87 9 -96 74 -10 l41 55 0 -93 c1 -106 59 -272 60 -172 1 64 39 71 128 25 123 -64 305 -6 371 117 30 54 171 101 254 83 44 -10 51 -8 28 8 -16 12 -54 22 -84 22 -88 0 -152 35 -185 99 -59 113 -333 191 -408 116 -20 -20 -23 -18 -12 10 16 41 10 42 -32 9z m301 -134 c123 -123 -63 -308 -212 -211 -57 38 -94 120 -77 173 17 55 69 23 69 -43 0 -71 25 -88 84 -55 69 39 77 60 35 97 -22 19 -39 44 -39 56 0 38 97 26 140 -17z"/> <path d="M834 3687 c-21 -21 27 -67 69 -67 32 0 35 6 17 40 -21 40 -61 52 -86 27z"/> <path d="M2493 3663 c4 -14 8 -64 10 -110 l3 -83 14 100 c13 96 14 97 17 22 4 -94 13 -89 29 15 11 69 8 76 -26 67 -21 -5 -42 -4 -46 3 -4 7 -4 1 -1 -14z"/> <path d="M4341 3681 c46 -27 128 -34 134 -11 3 11 -33 22 -80 24 -58 3 -75 -1 -54 -13z"/> <path d="M4672 3657 c10 -17 -4 -20 -50 -10 -59 11 -64 8 -58 -32 7 -53 76 -75 76 -24 0 21 11 29 29 22 15 -6 38 1 50 16 17 20 14 29 -10 39 -46 17 -53 15 -37 -11z"/> <path d="M4460 3540 c0 -11 13 -20 28 -20 18 0 25 -14 18 -40 -6 -22 -3 -41 7 -42 98 -9 126 -6 121 11 -4 12 -22 21 -41 21 -18 0 -32 9 -32 20 1 11 17 17 35 13 28 -5 26 0 -6 25 -45 35 -130 43 -130 12z"/> <path d="M4752 3522 c-7 -10 -4 -25 8 -32 49 -30 14 -44 -41 -16 -66 33 -86 29 -61 -10 36 -59 154 -53 153 7 -1 56 -37 87 -59 51z"/> <path d="M2740 3444 c0 -42 -10 -86 -23 -99 -13 -13 -16 -37 -6 -59 8 -20 14 -43 12 -51 -2 -8 6 -15 17 -15 11 0 19 -7 18 -15 -8 -48 6 -72 21 -35 9 24 7 47 -7 57 -16 11 -15 19 3 26 14 6 20 18 14 28 -27 44 -26 147 2 168 25 18 24 25 -11 46 -37 24 -40 21 -40 -51z"/> <path d="M4500 3378 c0 -13 -18 -18 -40 -12 -67 17 -45 -13 53 -75 88 -55 287 -90 287 -49 0 26 68 8 104 -27 38 -37 96 -47 96 -16 0 10 16 22 35 27 27 7 24 10 -9 12 -28 1 -41 12 -35 28 6 15 -8 27 -36 30 -25 2 -72 7 -105 11 -33 3 -85 8 -115 10 -32 2 -55 15 -55 31 0 29 -59 51 -135 52 -25 0 -45 -10 -45 -22z"/> <path d="M1434 3254 c6 -10 -1 -26 -16 -36 -18 -11 -4 -13 37 -5 55 10 64 7 53 -20 -14 -36 7 -42 50 -15 46 29 10 77 -65 85 -39 5 -65 1 -59 -9z"/> <path d="M3632 3164 c15 -30 28 -68 28 -84 0 -45 96 -140 140 -140 28 0 36 11 30 42 -7 36 -1 41 41 33 83 -16 86 64 5 107 -46 25 -78 4 -35 -23 25 -16 25 -18 -2 -19 -17 0 -41 10 -54 23 -17 17 -21 7 -15 -40 14 -109 -70 -40 -101 83 -7 28 -24 56 -39 61 -21 8 -21 0 2 -43z"/> <path d="M4182 3205 c9 -52 -5 -83 -32 -72 -19 7 -30 -1 -30 -21 0 -28 -48 -43 -105 -34 -24 3 -18 -8 35 -70 l50 -58 -44 -7 c-25 -4 -48 3 -52 15 -9 26 -83 29 -121 4 -21 -13 -20 -19 7 -29 19 -7 41 -9 50 -3 9 5 21 -3 27 -19 9 -24 23 -25 74 -8 70 25 112 100 65 118 -16 6 28 28 97 48 127 38 127 38 69 62 -35 14 -47 27 -32 32 34 12 8 57 -31 57 -16 0 -28 -7 -27 -15z"/> <path d="M5145 3118 c-72 -21 -92 -68 -20 -49 25 7 9 -6 -34 -29 -44 -22 -98 -44 -120 -49 -77 -15 -199 -85 -169 -97 24 -9 23 -14 -2 -32 -16 -12 -20 -22 -7 -22 12 0 27 -18 33 -39 5 -22 26 -38 47 -37 20 1 54 -6 75 -15 31 -13 36 -9 27 16 -8 21 -1 35 21 40 24 5 11 18 -41 43 -77 37 -83 72 -13 72 22 0 67 14 100 31 33 17 104 32 158 32 75 1 95 7 87 29 -10 24 1 23 69 -1 78 -27 164 -23 164 9 0 8 -63 21 -141 29 -112 11 -139 20 -135 45 8 41 -18 47 -99 24z"/> <path d="M3020 3054 c0 -57 53 -85 121 -64 53 17 41 54 -20 64 -27 4 -60 17 -74 29 -21 17 -27 11 -27 -29z"/> <path d="M2745 3052 c19 -14 35 -36 35 -47 0 -29 85 -48 109 -24 14 14 11 27 -9 39 -19 12 -33 11 -37 -1 -10 -29 -43 -23 -43 9 0 15 -14 33 -32 40 -51 19 -61 13 -23 -16z"/> <path d="M4279 2998 c-15 -21 -37 -37 -48 -36 -63 7 -94 -4 -84 -30 12 -32 -36 -60 -97 -55 -36 2 -36 0 5 -20 25 -13 45 -29 45 -37 0 -7 27 -9 59 -4 52 7 58 3 51 -34 -9 -50 6 -53 66 -11 28 20 44 23 44 8 0 -13 29 -21 75 -18 121 7 168 1 154 -22 -7 -11 -28 -16 -47 -10 -19 6 -52 -3 -73 -20 -37 -30 -35 -31 31 -18 39 8 95 14 125 13 35 -2 55 8 55 26 0 36 -62 70 -129 70 -28 0 -51 10 -51 22 0 16 -35 18 -112 9 -79 -10 -108 -8 -99 7 8 13 -3 22 -27 22 -39 0 -39 2 5 45 36 36 68 46 153 45 68 0 110 9 115 25 5 16 -11 25 -42 25 -28 0 -72 8 -99 18 -37 15 -53 11 -75 -20z"/> <path d="M2649 3005 c-12 -9 -15 -40 -7 -75 7 -33 14 -49 16 -35 1 14 17 25 36 25 25 0 28 6 12 22 -13 13 -18 35 -12 50 11 30 -11 36 -45 13z"/> <path d="M1780 2864 c-38 -39 -59 -65 -45 -57 16 10 25 4 25 -16 0 -17 -4 -31 -8 -31 -5 0 -24 -6 -44 -13 -23 -10 -30 -6 -20 10 8 12 6 23 -5 23 -10 0 -24 -13 -30 -30 -8 -20 1 -30 26 -30 21 0 41 -16 46 -35 4 -22 31 14 74 101 78 161 75 174 -19 78z"/> <path d="M5038 2844 c18 -35 52 -55 168 -102 68 -27 74 -27 74 -4 0 11 -27 25 -60 32 -102 22 -98 58 4 44 135 -19 136 11 2 39 -174 37 -212 35 -188 -9z"/> <path d="M1274 2805 c-109 -28 -130 -47 -63 -57 16 -3 24 4 18 14 -13 21 14 23 62 5 28 -11 23 -18 -24 -38 -57 -26 -56 -26 36 -27 87 -2 155 34 123 65 -7 7 -2 13 12 13 13 0 19 8 13 18 -6 10 0 23 14 29 54 22 -81 6 -191 -22z"/> <path d="M2381 2807 c-1 -13 -18 -19 -41 -13 -22 6 -40 1 -40 -11 0 -12 -14 -17 -30 -10 -22 8 -27 2 -18 -21 12 -30 -7 -41 -63 -34 -11 1 -50 -25 -86 -58 -36 -33 -72 -60 -81 -60 -25 0 -101 -167 -104 -231 -5 -96 23 -278 44 -286 12 -4 9 -20 -6 -39 -20 -24 -20 -28 -1 -17 63 38 91 -44 37 -109 -53 -62 -67 -126 -33 -147 10 -6 25 -1 33 12 8 14 4 28 -9 33 -16 5 -9 27 20 68 l43 61 26 -48 c15 -26 27 -41 27 -33 1 8 35 0 76 -18 41 -17 93 -33 115 -34 28 -2 38 -15 34 -42 -4 -30 -1 -33 13 -12 27 40 57 12 72 -68 16 -86 51 -93 51 -10 0 61 46 85 67 35 5 -14 11 -4 11 22 1 30 11 44 28 37 14 -5 43 3 64 18 21 16 51 28 68 28 16 0 50 20 76 43 34 33 46 36 46 15 0 -20 24 -31 70 -35 84 -5 88 13 14 66 -44 32 -49 33 -26 5 24 -31 24 -33 -7 -22 -24 10 -30 26 -21 56 8 23 15 58 16 77 3 36 34 50 34 15 0 -11 14 -20 31 -20 19 0 26 9 17 23 -10 17 -3 19 24 9 30 -11 33 -9 13 11 -39 40 -30 82 35 151 69 74 73 86 25 86 -29 1 -30 4 -6 19 16 10 34 15 41 11 6 -4 11 10 11 31 0 30 -9 36 -40 27 -23 -7 -35 -7 -28 1 7 7 -9 38 -37 67 -27 30 -64 71 -82 91 -19 21 -74 65 -124 97 -49 33 -75 55 -57 49 18 -6 49 1 68 15 29 22 21 25 -57 24 -58 -1 -85 5 -73 17 10 10 19 26 19 35 0 20 -68 21 -88 2 -30 -31 -159 -23 -185 10 -14 19 -26 24 -26 11z m30 -187 c5 0 7 8 4 18 -5 19 3 22 66 22 63 0 28 -34 -49 -48 -38 -7 -74 -24 -79 -38 -5 -13 -11 6 -11 42 -2 61 1 64 29 35 18 -17 36 -31 40 -31z m217 -5 c23 -25 53 -46 67 -47 57 -5 65 -9 65 -38 0 -16 8 -30 17 -30 9 0 28 -35 42 -78 20 -59 34 -75 62 -68 23 7 32 22 25 43 -8 23 -5 27 9 13 34 -31 40 -182 7 -161 -10 6 -22 0 -27 -14 -19 -48 -12 -65 21 -59 25 4 22 -5 -13 -35 -71 -61 -158 -43 -131 27 10 26 18 29 29 11 10 -17 19 -11 28 18 29 90 -131 179 -194 108 -81 -88 -55 -215 50 -246 73 -21 86 -33 89 -83 5 -66 -38 -94 -84 -56 -23 19 -46 16 -116 -18 -113 -55 -107 -58 -110 63 -1 58 3 94 9 80 14 -35 47 -31 47 5 0 17 -12 30 -28 30 -15 0 -35 20 -43 45 -12 33 -18 8 -24 -90 l-7 -135 -78 7 c-44 4 -94 20 -112 34 -17 15 -57 25 -89 23 -51 -4 -56 2 -55 56 1 33 10 60 20 60 10 0 12 -11 4 -23 -10 -16 -4 -20 18 -11 23 9 29 3 20 -19 -10 -27 -5 -28 32 -8 24 13 38 31 33 40 -6 9 12 32 41 50 94 62 35 270 -78 272 -62 2 -62 2 -17 24 35 17 56 17 84 -1 21 -13 52 -24 69 -24 34 0 40 31 10 50 -11 7 -20 30 -20 52 0 26 -9 35 -23 26 -15 -9 -18 -5 -8 11 9 13 32 20 53 15 20 -6 47 3 60 19 14 16 36 24 51 19 14 -6 32 -1 39 11 7 11 29 16 50 11 20 -6 36 -4 35 3 -9 72 14 78 71 18z m-428 -57 c0 -13 -18 -18 -42 -12 -41 11 -41 10 -5 -30 l37 -42 -56 36 c-42 27 -50 40 -30 53 38 24 96 21 96 -5z m-75 -336 c-13 -40 -64 -82 -99 -82 -40 0 -31 29 29 95 54 60 93 52 70 -13z m285 -369 c20 -15 53 -23 74 -18 27 7 33 2 24 -23 -13 -33 -68 -45 -68 -14 0 10 -22 23 -50 30 -27 7 -50 22 -50 32 0 28 26 25 70 -7z"/> <path d="M2600 2562 c0 -16 -13 -22 -35 -14 -28 10 -26 5 7 -23 22 -20 37 -49 31 -65 -7 -22 0 -20 25 5 32 32 32 39 3 79 -17 25 -31 33 -31 18z"/> <path d="M2452 2492 c-6 -27 -6 -63 0 -81 7 -17 2 -44 -10 -59 -15 -18 -16 -42 -4 -74 l19 -48 2 54 c0 29 10 59 21 66 13 8 13 25 -1 51 -19 36 6 60 26 24 5 -8 4 -1 -1 15 -5 17 -9 46 -8 65 2 52 -30 42 -44 -13z"/> <path d="M2643 2426 c-21 -22 -33 -23 -55 -5 -33 28 -36 11 -7 -44 17 -31 28 -35 50 -16 16 13 51 20 77 14 55 -10 52 23 -4 58 -26 16 -41 15 -61 -7z"/> <path d="M2990 2800 c-7 -11 3 -20 23 -20 26 0 29 -6 13 -22 -41 -41 -6 -78 71 -76 l73 2 -66 16 c-73 17 -117 48 -54 37 22 -3 52 1 66 10 16 11 41 4 65 -18 23 -20 39 -25 39 -12 0 13 10 23 21 23 12 0 16 -9 9 -20 -7 -11 2 -20 19 -20 17 0 31 9 31 19 0 11 16 15 35 8 30 -9 30 -7 5 11 -16 12 -61 22 -100 22 -38 1 -87 14 -109 31 -44 33 -123 39 -141 9z"/> <path d="M3568 2788 c7 -17 12 -35 12 -40 0 -4 14 -8 32 -8 20 0 28 -11 21 -30 -11 -29 8 -39 64 -31 15 2 21 -6 14 -18 -7 -11 0 -21 16 -21 16 0 33 -8 36 -17 4 -10 25 -10 47 -1 39 15 38 16 -5 29 -35 11 -41 20 -24 40 15 18 14 30 -3 40 -15 10 -19 7 -10 -8 10 -15 -4 -23 -42 -23 -40 1 -48 6 -28 18 35 22 11 62 -38 62 -21 0 -43 9 -50 20 -20 33 -55 23 -42 -12z"/> <path d="M726 2706 c22 -6 32 -21 26 -37 -18 -48 55 -68 210 -58 81 5 135 3 118 -5 -20 -9 0 -21 60 -36 119 -31 177 -10 70 24 l-80 26 75 -9 c56 -6 75 -1 75 20 0 31 -15 33 -259 32 -90 0 -170 11 -204 28 -30 16 -71 28 -91 27 -34 -3 -34 -3 0 -12z"/> <path d="M3360 2667 c14 -22 35 -41 48 -41 12 -1 38 -8 57 -16 21 -8 35 -5 35 8 0 12 -14 22 -31 22 -17 0 -54 15 -82 34 -51 33 -52 33 -27 -7z"/> <path d="M5354 2657 c38 -38 48 -40 77 -16 37 30 3 55 -80 58 -38 1 -38 -1 3 -42z"/> <path d="M5037 2663 c-1 -7 -4 -37 -5 -67 l-4 -53 166 -7 c174 -6 201 11 95 62 -32 16 -70 40 -83 53 -26 26 -164 35 -169 12z"/> <path d="M4344 2646 c-20 -8 -18 -16 8 -35 18 -13 30 -36 25 -50 -7 -20 -17 -18 -43 8 -26 26 -42 29 -61 13 -15 -12 -33 -16 -40 -8 -7 7 -13 4 -13 -7 0 -21 113 -67 165 -67 17 0 35 -9 39 -21 3 -11 82 -25 173 -31 180 -11 211 16 48 43 -107 18 -98 18 -165 1 -42 -11 -45 -9 -17 11 29 21 26 29 -30 67 -35 24 -61 54 -58 67 3 13 3 22 0 21 -3 0 -17 -6 -31 -12z"/> <path d="M869 2571 c-34 -26 -34 -30 -6 -30 52 -1 98 21 86 41 -16 25 -35 22 -80 -11z"/> <path d="M3715 2587 c14 -6 25 -24 25 -41 0 -24 18 -27 105 -16 160 22 188 52 42 46 -68 -3 -130 1 -139 9 -8 8 -24 14 -36 13 -12 0 -11 -6 3 -11z"/> <path d="M5680 2591 c0 -5 20 -28 44 -50 34 -32 37 -41 12 -41 -17 0 -41 -12 -53 -27 -33 -39 54 -73 190 -73 123 0 142 39 31 62 -35 7 -89 41 -122 75 -51 55 -102 82 -102 54z"/> <path d="M1296 2546 c-30 -15 -86 -28 -125 -30 -39 -1 -71 -10 -71 -19 0 -9 -38 -17 -85 -18 l-85 -1 76 -27 c82 -29 115 -51 77 -51 -12 0 -5 -18 17 -40 22 -22 64 -40 93 -40 30 0 47 6 40 14 -8 8 15 30 51 49 l66 35 -74 -2 c-41 -1 -70 -10 -64 -19 14 -23 -35 -21 -72 3 -24 16 -22 19 14 20 24 0 50 10 57 22 7 12 30 17 51 12 31 -9 34 -4 17 28 -17 31 -14 38 19 38 22 0 46 10 53 21 20 33 4 34 -55 5z"/> <path d="M1540 2520 c-16 -11 -54 -20 -84 -20 -29 0 -58 -7 -64 -17 -6 -9 10 -15 34 -13 81 7 86 -98 6 -130 -33 -14 -24 -18 43 -19 76 -1 86 4 97 54 8 30 20 64 28 75 44 61 2 110 -60 70z"/> <path d="M3140 2471 c0 -38 9 -74 20 -81 12 -7 17 6 13 34 -5 25 0 56 10 69 12 14 7 27 -12 34 -24 9 -31 -4 -31 -56z"/> <path d="M820 2445 c0 -32 156 -69 195 -46 32 18 32 20 -5 22 -68 4 -119 13 -155 29 -19 8 -35 6 -35 -5z"/> <path d="M3800 2438 c0 -10 -12 -18 -27 -18 -38 0 -33 -60 5 -61 28 0 28 -4 -2 -26 -31 -24 -28 -26 23 -26 43 0 54 7 46 30 -7 16 -4 25 7 19 26 -16 113 20 100 41 -6 10 -36 14 -67 9 -38 -6 -47 -3 -28 10 20 14 17 21 -15 29 -23 6 -42 3 -42 -7z"/> <path d="M3937 2435 c31 -31 143 -38 143 -9 0 15 -31 25 -81 27 -55 1 -75 -5 -62 -18z"/> <path d="M5220 2409 c0 -11 127 -69 150 -69 5 0 -1 18 -15 40 -22 36 -135 60 -135 29z"/> <path d="M5520 2381 c0 -11 9 -21 20 -21 12 0 30 -22 40 -50 10 -27 29 -50 41 -50 12 0 16 -9 9 -20 -7 -11 2 -20 20 -20 18 0 27 -9 20 -20 -7 -11 9 -30 36 -42 93 -42 56 -88 -63 -78 -30 2 -42 -5 -34 -18 15 -25 121 -27 180 -4 35 14 35 16 3 28 -45 18 -22 54 34 54 36 1 38 4 14 20 -22 14 -4 19 65 20 53 0 95 9 95 21 0 12 -9 16 -20 9 -11 -7 -30 -6 -42 1 -16 10 -14 19 5 31 46 29 -16 22 -96 -12 -84 -35 -87 -36 -87 -12 0 9 20 24 45 31 41 13 39 16 -25 34 -38 11 -113 42 -165 70 -52 27 -95 40 -95 28z"/> <path d="M3995 2345 c-19 -4 -35 -16 -35 -26 0 -11 -19 -19 -41 -19 -28 0 -36 -8 -26 -25 9 -14 13 -41 10 -60 -3 -21 7 -35 26 -35 17 0 31 8 31 18 0 10 36 25 80 32 94 16 107 50 20 50 -33 0 -60 10 -60 22 0 13 23 16 65 7 69 -15 71 -7 5 25 -22 10 -56 15 -75 11z"/> <path d="M4595 2346 c-60 -15 -38 -42 34 -42 37 0 78 -6 90 -13 35 -22 24 13 -14 41 -36 28 -51 30 -110 14z"/> <path d="M4400 2331 c0 -15 78 -53 126 -62 42 -7 42 -6 -6 31 -45 35 -120 54 -120 31z"/> <path d="M5216 2324 c-23 -9 -29 -23 -18 -41 14 -22 22 -21 39 10 12 20 22 26 22 12 1 -14 20 -25 43 -25 36 0 39 5 18 30 -27 32 -50 35 -104 14z"/> <path d="M651 2282 c-6 -10 0 -23 14 -29 20 -8 20 -10 0 -11 -50 -4 -23 -42 30 -43 l55 -2 -50 -19 c-39 -16 -43 -24 -20 -38 15 -9 35 -13 44 -7 9 5 16 -5 16 -22 0 -19 18 -31 45 -31 25 0 57 -18 70 -40 19 -30 19 -40 2 -40 -13 0 -19 -5 -13 -11 6 -6 54 12 106 40 53 28 112 51 132 51 20 0 41 8 47 18 12 19 -53 41 -125 42 -25 0 -50 14 -57 30 -6 17 -51 40 -99 53 -59 14 -88 33 -88 54 -1 29 -3 29 -20 3 -13 -20 -19 -22 -20 -5 0 29 -52 34 -69 7z"/> <path d="M1140 2283 c-27 -7 -53 -26 -57 -43 -3 -16 0 -24 8 -16 7 8 27 1 43 -15 26 -26 126 -42 126 -20 0 4 -13 21 -29 38 -26 25 -24 31 22 42 28 7 57 8 63 2 6 -6 -4 -11 -23 -11 -41 0 -43 -32 -3 -47 17 -7 30 -3 30 8 0 10 14 19 30 19 17 0 30 -13 30 -30 0 -54 149 -40 175 17 28 61 -248 98 -415 56z"/> <path d="M3608 2285 c-34 -23 -49 -105 -18 -105 14 0 29 27 34 60 5 33 8 60 8 60 -1 0 -12 -7 -24 -15z"/> <path d="M4820 2272 c0 -21 17 -32 50 -32 28 0 50 9 50 20 0 11 -8 20 -18 20 -10 0 -33 5 -50 12 -21 8 -32 1 -32 -20z"/> <path d="M3402 2253 c-24 -29 -10 -53 31 -53 30 0 37 52 9 69 -9 6 -27 -1 -40 -16z"/> <path d="M5240 2246 c0 -15 32 -42 70 -60 39 -18 70 -40 70 -48 0 -7 12 -18 26 -24 15 -6 25 6 25 29 0 24 -18 43 -46 50 -28 7 -43 23 -38 37 7 17 -11 29 -48 34 -40 6 -59 1 -59 -18z"/> <path d="M4412 2237 c10 -16 -18 -20 -99 -13 -62 5 -113 1 -113 -9 0 -9 -9 -12 -20 -5 -11 7 -35 4 -53 -7 -45 -25 6 -39 140 -39 123 0 169 -41 55 -49 -23 -2 -42 -10 -42 -17 0 -23 208 -7 257 19 25 15 58 22 73 16 42 -16 52 11 15 41 -33 25 -32 27 5 24 124 -9 191 2 167 28 -25 27 -182 18 -232 -13 -15 -9 -39 -2 -57 16 -36 36 -118 43 -96 8z"/> <path d="M3101 2213 c27 -10 75 -32 108 -47 l59 -27 -45 47 c-28 31 -66 47 -108 47 -62 0 -62 0 -14 -20z"/> <path d="M3282 2208 c12 -14 15 -37 7 -49 -10 -17 -3 -17 29 0 56 30 53 54 -8 66 -40 8 -46 4 -28 -17z"/> <path d="M3992 2157 c10 -17 -4 -20 -50 -10 -40 8 -59 5 -52 -7 7 -11 55 -19 106 -18 52 2 78 7 59 12 -19 5 -35 17 -35 27 0 11 -10 19 -21 19 -12 0 -15 -10 -7 -23z"/> <path d="M4920 2123 c0 -13 10 -23 21 -23 33 0 159 -102 159 -128 0 -32 62 -67 148 -83 82 -15 102 19 21 39 -28 7 -90 53 -139 103 -85 87 -210 141 -210 92z"/> <path d="M1485 2106 c28 -7 30 -14 9 -35 -26 -26 -154 -19 -154 8 0 8 -27 10 -60 5 -33 -5 -56 -14 -52 -21 5 -7 -35 -11 -89 -9 -105 4 -124 -42 -26 -66 65 -17 344 10 359 35 6 10 29 13 50 6 25 -7 38 -2 38 16 0 37 -41 75 -79 73 -24 -2 -23 -5 4 -12z"/> <path d="M5220 2078 c67 -53 121 -74 165 -63 45 12 -22 51 -141 84 l-74 20 50 -41z"/> <path d="M4230 2027 c-107 -20 -116 -26 -52 -34 10 -2 25 -10 34 -18 25 -26 47 -16 35 15 -9 24 1 27 49 18 33 -7 76 -2 97 11 30 19 30 22 3 14 -18 -6 -36 -4 -40 3 -3 8 -60 4 -126 -9z"/> <path d="M4760 2016 c-20 -22 -47 -34 -60 -26 -29 18 -125 -6 -111 -28 6 -9 -28 -23 -74 -30 -53 -9 -87 -6 -91 7 -4 12 -17 21 -29 21 -12 0 -6 -16 12 -37 53 -58 -3 -99 -59 -43 -12 12 -46 12 -97 -2 -55 -16 -91 -15 -125 0 -58 27 -140 29 -155 4 -6 -10 5 -14 24 -9 19 5 53 -5 75 -21 36 -27 36 -31 5 -31 -19 -1 -35 -10 -35 -21 0 -11 -15 -20 -33 -20 -67 0 -13 -19 79 -27 52 -5 94 -1 94 9 0 27 56 22 106 -11 71 -47 134 -34 112 24 -13 35 -10 49 12 58 42 16 134 -10 120 -34 -7 -10 -1 -19 12 -19 14 0 19 -5 13 -12 -6 -6 -35 4 -63 23 -29 18 -52 25 -52 15 0 -38 51 -66 123 -66 41 0 80 -9 87 -20 7 -11 22 -20 34 -20 12 0 5 19 -16 43 -38 42 -38 42 12 27 39 -12 32 -1 -34 52 -46 38 -84 73 -85 79 -1 15 146 15 159 0 6 -7 35 -28 65 -47 61 -39 72 -26 24 27 -47 52 50 71 135 27 117 -61 178 -71 150 -26 -13 21 -30 38 -39 38 -8 0 -15 14 -15 31 0 92 -209 140 -280 65z"/> <path d="M3085 2027 c-38 -16 -30 -41 16 -53 35 -9 38 -18 20 -51 -24 -46 -15 -54 67 -59 54 -4 56 -1 28 31 -17 19 -26 48 -21 63 6 17 2 22 -13 13 -28 -17 -86 26 -71 51 12 20 11 20 -26 5z"/> <path d="M1740 2000 c-19 -12 -21 -20 -6 -20 14 0 20 -14 13 -30 -8 -22 -2 -27 21 -18 17 7 32 29 32 50 0 42 -15 47 -60 18z"/> <path d="M5770 1999 c-50 -12 -52 -15 -14 -17 55 -2 124 -36 124 -61 0 -44 -252 -70 -269 -28 -5 15 -30 27 -54 27 -42 0 -42 2 -9 26 31 23 26 26 -47 28 -87 2 -99 -24 -30 -63 22 -11 45 -29 52 -39 7 -10 28 -12 46 -5 18 7 28 4 21 -6 -6 -11 7 -29 30 -41 23 -12 36 -31 29 -41 -6 -10 14 -19 45 -19 31 0 79 -6 106 -12 48 -11 49 -10 11 21 -21 17 -28 31 -15 31 13 0 24 14 24 30 0 17 11 28 23 25 31 -7 97 -70 97 -93 0 -10 14 -23 30 -29 23 -9 30 3 30 49 0 33 -8 55 -18 49 -10 -6 -32 19 -49 55 -46 98 -92 129 -163 113z"/> <path d="M3253 1987 c-28 -29 -11 -63 37 -72 59 -11 63 0 15 39 -19 16 -24 23 -10 16 14 -7 25 -3 25 9 0 23 -46 29 -67 8z"/> <path d="M890 1952 l-60 -26 80 6 c44 3 91 6 105 7 14 0 25 10 25 21 0 28 -78 24 -150 -8z"/> <path d="M1300 1956 c-47 -9 -26 -11 60 -6 95 6 117 3 83 -11 -26 -11 -125 -18 -220 -16 -158 3 -343 -28 -343 -56 0 -6 34 -6 75 0 171 27 365 36 365 17 0 -10 -29 -18 -65 -18 -188 3 -444 -141 -351 -198 23 -15 119 32 106 52 -11 17 144 100 187 100 29 -1 29 -3 3 -20 -44 -29 12 -26 66 3 42 23 112 35 207 37 23 0 54 14 68 31 21 25 19 28 -10 16 -31 -11 -33 -7 -13 29 34 64 -39 77 -218 40z"/> <path d="M1865 1947 c-27 -11 -35 -67 -10 -66 21 1 85 51 85 66 0 15 -38 15 -75 0z"/> <path d="M3745 1927 c-14 -6 -25 -19 -25 -30 0 -10 -18 -38 -39 -61 -22 -23 -36 -48 -31 -55 4 -8 -14 -39 -41 -70 -26 -31 -43 -64 -37 -74 6 -9 -2 -17 -16 -17 -15 0 -35 -17 -46 -38 -11 -20 -36 -66 -56 -101 -21 -36 -31 -71 -23 -78 8 -7 18 -2 23 11 5 13 21 19 36 13 15 -5 37 8 48 30 12 22 41 46 63 53 24 8 37 25 32 40 -15 37 9 54 40 28 20 -17 30 -15 39 10 7 17 29 32 50 32 41 0 51 30 18 50 -35 22 -21 87 22 100 22 8 37 18 31 23 -5 6 -2 36 7 69 10 32 10 58 0 58 -9 0 -29 4 -43 8 -15 5 -38 4 -52 -1z"/> <path d="M1764 1811 c7 -8 5 -37 -5 -64 -17 -43 -15 -46 20 -27 61 32 66 56 17 82 -25 13 -40 17 -32 9z"/> <path d="M1411 1754 l-60 -44 60 -11 c84 -15 148 0 136 32 -6 14 -25 22 -44 16 -26 -8 -25 -4 6 21 65 54 -26 41 -98 -14z"/> <path d="M2060 1758 c0 -12 -13 -17 -29 -11 -30 11 -84 -38 -57 -52 43 -21 92 -2 99 40 4 25 2 45 -3 45 -6 0 -10 -10 -10 -22z"/> <path d="M5013 1756 c13 -22 122 -20 136 3 7 11 -22 18 -67 16 -44 -2 -75 -11 -69 -19z"/> <path d="M1820 1720 c-12 -23 -17 -49 -11 -59 7 -10 3 -24 -9 -31 -11 -7 -20 -1 -20 12 0 14 -6 19 -14 11 -7 -7 7 -32 32 -55 24 -23 51 -36 58 -28 22 22 18 110 -5 110 -12 1 2 18 29 40 49 39 50 39 6 40 -25 0 -54 -18 -66 -40z"/> <path d="M2240 1730 c0 -17 -18 -30 -41 -30 -23 0 -36 9 -29 20 23 37 -30 21 -65 -20 -18 -22 -45 -40 -59 -40 -33 0 -33 -14 -1 -49 21 -23 32 -21 69 13 l43 41 -11 -42 c-6 -24 -18 -38 -27 -32 -9 5 -22 1 -29 -11 -7 -11 -4 -20 7 -20 11 0 36 -6 55 -13 27 -11 32 -6 22 21 -8 19 -6 29 4 23 27 -16 68 44 75 110 4 33 2 59 -3 59 -6 0 -10 -13 -10 -30z"/> <path d="M3154 1732 c-7 -17 4 -32 27 -38 22 -6 39 -2 39 9 0 11 11 14 25 7 14 -7 8 1 -14 19 -48 38 -64 39 -77 3z"/> <path d="M2660 1700 c0 -22 9 -40 20 -40 11 0 20 -10 20 -22 0 -13 -18 -18 -40 -12 -22 6 -40 3 -40 -5 0 -28 57 -65 79 -52 12 8 21 3 21 -9 0 -12 9 -17 19 -10 11 6 13 30 3 56 -9 24 -13 53 -9 64 4 11 -11 32 -33 45 -35 22 -40 20 -40 -15z"/> <path d="M3040 1715 c1 -37 39 -93 40 -58 0 22 6 23 29 4 25 -21 25 -17 5 27 -25 53 -74 71 -74 27z"/> <path d="M1080 1674 c-27 -13 -56 -31 -63 -42 -15 -21 2 -79 19 -63 6 6 22 1 36 -11 27 -22 128 29 128 66 0 10 20 12 45 4 25 -8 90 -13 145 -11 l100 3 -56 -50 c-31 -27 -78 -50 -104 -50 -26 0 -53 -9 -60 -20 -7 -11 7 -18 34 -15 30 3 46 -6 46 -25 0 -17 -21 -33 -50 -36 -40 -5 -44 -1 -20 15 17 11 21 20 10 20 -28 0 -99 -56 -87 -68 21 -21 161 17 172 47 7 18 17 37 24 43 6 5 49 50 95 100 l85 89 -135 3 c-74 2 -174 8 -224 14 -49 5 -112 0 -140 -13z"/> <path d="M2927 1655 c7 -25 13 -52 13 -61 0 -9 9 -11 20 -4 11 7 14 -1 8 -19 -8 -20 -1 -31 20 -31 39 0 39 4 3 91 -32 77 -83 97 -64 24z"/> <path d="M5010 1680 c-6 -9 1 -21 15 -27 15 -6 10 -10 -11 -11 -20 -1 -31 -11 -24 -22 8 -13 25 -13 50 0 30 16 44 11 69 -24 24 -35 31 -38 31 -12 0 18 16 37 35 42 30 8 29 10 -5 12 -22 1 -65 15 -95 31 -30 15 -59 21 -65 11z"/> <path d="M5503 1658 c5 -15 42 -44 83 -65 41 -20 74 -51 74 -70 0 -18 20 -46 45 -61 42 -27 43 -26 15 8 -28 34 -26 36 25 23 66 -17 73 12 10 44 -46 24 18 21 170 -9 31 -6 55 -2 55 9 0 35 -44 50 -136 46 -57 -3 -107 7 -141 30 -29 20 -62 37 -73 39 -11 2 -46 11 -78 19 -44 11 -55 8 -49 -13z"/> <path d="M1927 1610 c-13 -28 -15 -50 -5 -50 10 0 18 9 18 20 0 11 14 20 30 20 20 0 30 -19 29 -55 -1 -39 -6 -45 -15 -22 -14 31 -104 19 -104 -14 0 -8 14 -8 31 -1 18 6 26 3 19 -8 -26 -42 13 -59 62 -27 49 32 49 32 29 -20 -18 -48 -16 -53 29 -53 28 0 50 -9 50 -20 0 -11 14 -20 31 -20 16 0 36 -14 43 -32 8 -23 28 -29 70 -20 32 6 53 3 47 -6 -6 -10 23 -31 64 -48 41 -16 78 -22 82 -12 3 10 20 4 37 -13 21 -21 55 -28 113 -21 46 5 100 10 120 11 28 1 35 12 27 41 -9 34 0 40 58 40 48 0 68 9 68 31 0 25 8 26 42 8 22 -12 53 -18 67 -12 15 5 45 -3 68 -19 36 -25 50 -25 107 0 l66 29 -95 1 c-53 1 -95 11 -95 23 0 13 17 16 40 9 33 -11 39 -4 36 38 -5 50 -6 50 -54 18 -35 -22 -52 -25 -58 -9 -4 13 -19 23 -34 23 -32 0 -50 44 -37 94 6 23 -10 55 -43 86 l-52 48 -12 -48 c-12 -45 -14 -45 -30 -9 -12 28 -13 21 -5 -21 14 -71 49 -116 49 -63 0 32 3 33 30 6 17 -17 30 -56 29 -87 l0 -56 -29 50 c-23 40 -29 43 -29 14 -1 -20 -10 -31 -21 -24 -11 7 -20 2 -20 -10 0 -14 -12 -11 -30 7 -16 17 -30 42 -30 55 0 14 -13 8 -29 -13 -28 -38 -29 -37 -18 6 7 27 3 45 -11 45 -13 0 -31 -20 -41 -45 -11 -27 -19 -33 -20 -14 -2 45 -82 109 -101 79 -10 -15 -18 -9 -25 18 -13 47 -55 58 -55 14 0 -15 -13 -33 -30 -39 -19 -8 -30 0 -30 21 0 28 -7 26 -41 -10 -48 -52 -68 -57 -51 -12 8 20 3 28 -13 23 -14 -5 -22 -25 -19 -44 4 -19 -2 -30 -13 -23 -11 7 -27 2 -35 -11 -10 -16 -22 -12 -41 14 -26 35 -27 34 -27 -7 0 -52 -39 -60 -42 -9 -2 19 -1 43 0 52 2 9 -15 33 -37 52 -23 20 -41 46 -41 58 0 42 -50 23 -73 -27z"/> <path d="M3331 1641 c-17 -27 5 -101 31 -101 10 0 13 24 6 55 -17 68 -21 73 -37 46z"/> <path d="M4695 1647 c42 -17 28 -51 -15 -37 -22 7 -40 4 -40 -6 0 -23 143 -48 305 -54 151 -6 147 20 -9 48 -68 11 -132 30 -144 42 -11 11 -43 19 -71 18 -28 0 -40 -6 -26 -11z"/> <path d="M1236 1553 c-102 -40 -200 -99 -108 -66 20 8 49 4 64 -9 21 -17 30 -15 40 10 7 17 47 41 90 53 43 11 78 29 78 40 0 28 -36 22 -164 -28z"/> <path d="M3212 1586 c-6 -7 1 -27 16 -44 15 -18 31 -50 36 -72 7 -39 8 -39 19 1 12 43 -47 138 -71 115z"/> <path d="M3880 1580 c0 -11 11 -20 25 -20 17 -1 15 -7 -5 -20 -23 -15 -18 -19 25 -20 64 0 69 15 20 52 -42 32 -65 35 -65 8z"/> <path d="M3100 1552 c0 -15 14 -33 32 -40 59 -23 74 -12 38 28 -42 47 -70 52 -70 12z"/> <path d="M4328 1557 c-14 -22 87 -129 105 -111 6 7 6 34 0 61 -13 50 -84 84 -105 50z"/> <path d="M4474 1531 c39 -53 71 -68 259 -121 120 -34 222 -33 137 1 -22 9 -49 27 -60 39 -11 12 -71 38 -134 57 -63 19 -120 43 -126 54 -7 10 -35 19 -62 19 -49 0 -50 0 -14 -49z"/> <path d="M1448 1495 c-23 -25 -49 -65 -56 -89 -8 -25 -36 -62 -63 -83 -108 -85 63 -54 201 37 44 28 98 59 120 68 32 13 34 19 10 27 -16 5 -42 24 -58 42 -25 30 -26 30 -15 -2 7 -21 -7 -56 -37 -90 -27 -30 -49 -43 -49 -29 -1 14 12 30 27 36 15 6 25 26 22 44 -4 19 -8 38 -8 42 -1 5 -20 -9 -43 -29 -41 -37 -41 -37 -21 17 25 65 24 66 -30 9z"/> <path d="M4168 1508 c6 -16 -2 -28 -19 -28 -39 0 -37 -49 4 -83 30 -24 33 -22 22 18 -12 50 4 58 41 21 13 -13 24 -15 24 -4 0 11 -11 31 -24 44 -30 30 -7 31 47 2 34 -18 40 -16 34 15 -5 26 -27 38 -74 40 -49 3 -63 -3 -55 -25z"/> <path d="M5470 1468 c39 -32 38 -32 -24 -21 -49 9 -62 5 -54 -15 12 -31 -90 -58 -159 -42 -119 27 -313 25 -290 -3 12 -15 27 -24 32 -18 6 5 40 -3 76 -18 50 -21 69 -22 75 -4 7 17 16 16 37 -4 21 -22 21 -30 2 -37 -14 -5 -25 -19 -25 -32 0 -16 6 -16 22 0 16 16 40 16 80 2 32 -11 73 -15 90 -8 33 13 196 -19 253 -49 44 -24 55 -24 55 2 0 11 -16 26 -35 34 -50 18 -85 57 -85 93 0 19 -11 26 -30 19 -16 -6 -30 -2 -30 9 0 12 26 27 59 34 41 9 55 22 47 42 -6 16 -15 25 -21 20 -5 -5 -33 -1 -62 9 -51 19 -52 18 -13 -13z"/> <path d="M5835 1409 c-5 -28 -5 -46 1 -40 5 6 21 -4 34 -22 17 -24 33 -27 58 -14 31 18 30 24 -9 73 -52 67 -72 68 -84 3z"/> <path d="M3897 1393 c17 -19 19 -33 7 -33 -12 0 -27 9 -34 20 -28 46 -276 -33 -265 -84 3 -16 -12 -24 -40 -21 -48 5 -62 -25 -20 -42 18 -7 19 -15 3 -26 -41 -32 9 -141 96 -210 47 -37 87 -65 90 -62 20 17 72 -2 118 -45 56 -52 79 -64 58 -30 -7 11 3 36 23 55 30 30 33 30 23 3 -10 -25 7 -38 68 -57 94 -28 130 -11 41 20 -33 12 -65 38 -71 58 -5 21 -35 43 -70 50 -42 9 -58 23 -51 42 8 20 -3 29 -36 27 -26 0 -36 -6 -22 -11 51 -21 23 -45 -46 -39 -94 9 -230 116 -194 154 20 21 37 14 87 -38 35 -35 77 -64 95 -63 23 0 15 14 -26 44 l-58 44 48 13 c48 12 47 13 -21 44 l-70 31 54 13 c29 8 63 8 75 1 12 -8 16 -1 9 16 -12 31 100 35 148 6 15 -10 20 11 17 60 -3 44 -17 78 -34 84 -25 8 -25 5 -2 -24z"/> <path d="M4020 1400 c0 -11 14 -20 30 -20 17 0 30 -9 30 -20 0 -11 14 -20 30 -20 40 0 38 20 -5 52 -42 32 -85 36 -85 8z"/> <path d="M4390 1360 c44 -21 94 -55 111 -76 44 -54 114 -89 129 -64 7 11 3 20 -9 20 -11 0 -21 8 -21 19 0 11 24 11 60 1 36 -10 60 -10 60 1 0 11 -10 19 -21 19 -12 0 -15 10 -8 22 7 12 34 16 60 10 26 -7 52 -3 60 9 17 28 -196 20 -214 -8 -8 -12 -42 1 -84 33 -46 35 -94 53 -137 52 l-66 -1 80 -37z"/> <path d="M1817 1286 c-39 -47 3 -68 64 -32 33 19 59 41 59 48 0 23 -102 10 -123 -16z"/> <path d="M4079 1279 c-15 -21 -48 -39 -73 -39 -28 0 -46 -12 -46 -30 0 -18 -18 -30 -45 -30 -37 -1 -40 -4 -15 -22 23 -16 14 -19 -36 -10 -78 13 -70 -14 17 -59 34 -17 59 -21 59 -10 0 12 32 21 72 21 56 0 70 7 61 30 -8 20 1 30 26 30 55 0 108 -24 85 -38 -11 -7 12 -28 51 -48 56 -29 68 -30 59 -7 -9 24 4 28 62 22 l74 -8 -60 34 -60 35 75 6 c41 4 75 16 75 27 0 12 14 16 30 10 17 -7 30 -5 30 3 0 26 -80 65 -176 85 -52 11 -120 25 -152 32 -46 10 -55 7 -41 -15 13 -23 11 -23 -13 -4 -25 20 -36 17 -59 -15z m351 -60 c11 -2 -9 -10 -44 -18 -72 -17 -166 -5 -166 21 0 14 108 12 210 -3z"/> <path d="M5681 1304 c-1 -14 22 -59 49 -100 39 -57 44 -75 22 -80 -21 -5 -17 -18 17 -55 60 -65 98 -64 86 2 -6 33 1 56 23 69 19 11 22 19 7 19 -14 1 -25 15 -25 33 0 21 -11 28 -31 21 -19 -8 -52 12 -89 52 -32 36 -59 53 -59 39z"/> <path d="M1935 1214 c-30 -25 -55 -52 -55 -60 0 -30 55 -12 97 32 77 82 48 101 -42 28z"/> <path d="M5254 1171 c-17 -17 -41 -31 -53 -31 -29 0 -26 -13 12 -58 18 -21 45 -34 60 -28 46 17 167 -51 167 -95 0 -42 49 -53 72 -16 9 15 5 18 -12 7 -20 -12 -23 -3 -12 37 10 41 5 57 -23 66 -19 7 -68 44 -107 81 -66 62 -75 66 -104 37z"/> <path d="M1781 1148 c-38 -16 -80 -25 -93 -20 -14 5 -36 -3 -49 -19 -19 -23 -18 -29 5 -29 48 0 81 -93 40 -111 -55 -23 75 -53 136 -31 69 24 143 19 132 -10 -10 -25 91 -54 108 -31 34 44 97 60 110 27 12 -30 17 -29 49 11 30 36 39 39 48 15 7 -17 19 -29 27 -28 43 7 50 -5 16 -29 -34 -26 -32 -28 27 -37 36 -5 69 -2 75 7 5 9 28 5 50 -8 32 -21 43 -20 58 5 14 22 19 23 20 4 1 -80 163 -109 177 -32 4 21 16 47 26 58 13 13 15 -8 5 -60 -12 -69 -10 -77 15 -55 24 19 35 19 55 0 14 -14 23 -16 21 -5 -11 56 4 150 23 150 14 0 17 -19 9 -53 -11 -46 -8 -51 28 -41 31 8 44 -1 53 -36 13 -53 -24 -137 -53 -119 -10 6 -19 -2 -19 -18 0 -19 -13 -26 -37 -20 -31 8 -35 0 -30 -57 7 -59 5 -61 -15 -23 -21 40 -118 58 -118 22 0 -8 -10 -15 -21 -15 -12 0 -16 9 -9 20 7 11 3 20 -9 20 -11 0 -21 -16 -21 -36 0 -20 -11 -49 -25 -64 -20 -22 -17 -22 13 1 35 27 37 25 23 -18 -13 -41 -10 -45 27 -34 24 8 42 5 42 -7 0 -11 14 -16 30 -9 24 9 31 -8 33 -86 1 -56 6 -76 12 -47 5 28 16 55 24 60 8 6 25 28 37 50 13 22 23 28 23 14 1 -16 11 -20 26 -12 14 8 9 -3 -10 -25 -38 -44 -46 -87 -16 -87 11 0 15 -14 8 -30 -14 -38 14 -38 64 -1 55 42 74 38 45 -8 -14 -22 -17 -46 -9 -55 25 -24 73 54 73 118 0 31 8 56 18 56 9 0 29 29 43 65 15 36 35 71 45 78 11 7 13 23 5 36 -15 24 -56 16 -171 -34 -38 -17 -77 -30 -85 -28 -8 2 -15 -7 -15 -18 0 -12 -9 -16 -20 -9 -21 13 48 166 91 200 14 11 30 34 35 50 5 17 6 5 2 -25 -8 -61 44 -80 65 -23 10 25 16 26 29 5 14 -21 17 -20 18 6 0 18 -13 38 -29 44 -16 6 -39 48 -51 93 -31 114 -140 224 -140 140 0 -30 -39 -24 -73 10 -17 17 -41 24 -54 15 -39 -25 -193 -18 -193 9 0 30 -114 92 -139 76 -10 -6 -24 -2 -31 10 -17 28 -130 25 -130 -4 0 -13 -13 -7 -28 14 -24 33 -32 35 -60 11 -29 -23 -31 -22 -19 9 9 25 6 32 -10 22 -12 -8 -23 -5 -23 7 0 31 -54 26 -111 -12 -28 -18 -56 -27 -62 -21 -7 7 -37 -1 -69 -17 -96 -50 -138 -37 -71 23 71 62 63 73 -26 36z m169 -168 c-20 -33 -55 -23 -42 12 10 25 4 29 -23 18 -55 -23 -124 -28 -135 -10 -25 40 158 76 186 37 15 -20 21 -46 14 -57z"/> <path d="M3235 1167 c16 -7 19 -22 7 -44 -19 -37 -6 -163 18 -163 8 0 15 -25 15 -55 1 -110 6 -125 35 -125 17 0 28 11 25 25 -8 38 136 43 208 7 34 -17 69 -27 78 -22 8 6 19 0 23 -13 21 -63 89 -30 87 42 -2 99 -71 138 -71 40 0 -36 -17 -47 -55 -34 -8 3 -15 17 -15 31 0 14 -14 34 -30 45 -17 10 -23 19 -14 19 24 0 -39 60 -63 60 -11 0 -24 -11 -29 -25 -6 -17 -22 -12 -51 19 -29 30 -35 46 -17 54 13 6 6 9 -16 6 -37 -5 -110 61 -110 98 0 9 13 -2 28 -23 16 -21 35 -33 42 -26 17 18 -62 97 -95 95 -20 -1 -20 -3 0 -11z"/> <path d="M4999 1149 c-11 -13 -47 -30 -81 -36 -33 -7 -55 -21 -49 -32 7 -11 28 -14 47 -8 29 9 29 8 4 -11 -16 -12 -46 -22 -65 -22 -55 0 -41 -36 28 -72 59 -30 62 -30 50 2 -11 29 -5 32 38 22 64 -17 99 2 69 37 -16 20 -12 30 14 40 32 12 30 17 -14 42 l-50 28 50 3 c28 3 66 3 86 1 20 -2 31 5 25 16 -17 26 -127 20 -152 -10z"/> <path d="M3107 1130 c-6 -17 -7 -48 -1 -69 11 -45 -37 -72 -54 -30 -9 23 -20 24 -61 6 -66 -30 -64 -46 9 -100 58 -43 86 -94 35 -65 -14 8 -18 7 -9 -4 22 -24 80 -23 99 2 8 12 15 7 15 -12 0 -33 60 -98 90 -98 9 0 1 17 -18 38 -23 25 -27 43 -13 51 25 16 28 111 3 111 -10 0 -23 15 -30 33 -11 28 -9 29 21 5 18 -15 30 -19 25 -8 -4 11 -21 54 -37 95 -31 80 -55 94 -74 45z"/> <path d="M5593 1127 c-23 -24 -14 -67 15 -67 16 0 32 -8 35 -18 4 -10 27 -10 54 1 l48 17 -51 40 c-53 42 -79 49 -101 27z"/> <path d="M4200 1040 c0 -16 -22 -19 -65 -9 -51 10 -60 8 -41 -11 26 -28 132 -46 116 -20 -6 9 1 20 14 25 19 6 19 11 0 23 -13 8 -24 4 -24 -8z"/> <path d="M5541 966 c-1 -49 91 -146 138 -146 22 0 18 12 -15 45 -24 25 -62 68 -84 95 -38 49 -39 49 -39 6z"/> <path d="M5900 976 c0 -31 78 -85 96 -66 19 18 -26 79 -63 86 -18 4 -33 -5 -33 -20z"/> <path d="M4695 948 c-7 -7 -44 -12 -84 -12 -87 0 -91 -18 -12 -53 54 -23 68 -21 145 25 l86 52 -62 0 c-34 0 -67 -5 -73 -12z"/> <path d="M5150 880 c55 -58 90 -62 90 -12 0 14 -33 35 -73 48 l-73 22 56 -58z"/> <path d="M4720 864 c-38 -19 -76 -41 -82 -51 -7 -9 -29 -15 -50 -12 -81 8 -120 -5 -58 -20 l60 -15 -58 -24 c-47 -19 -62 -18 -75 2 -9 15 -17 17 -17 4 0 -12 -26 -17 -63 -12 -43 6 -58 2 -49 -13 9 -14 -15 -27 -68 -35 -45 -7 -76 -19 -69 -26 12 -12 21 -14 73 -19 13 -2 6 -16 -15 -32 -38 -29 -38 -30 1 -31 29 0 33 -5 14 -17 -21 -13 -20 -22 5 -42 25 -21 31 -21 31 2 1 21 5 21 20 -3 17 -25 23 -25 38 -3 12 19 21 21 31 5 8 -13 22 -17 32 -11 11 6 19 2 19 -10 0 -11 10 -21 22 -21 12 0 17 13 11 29 -15 40 27 63 51 29 13 -20 15 -15 6 17 -28 101 58 169 126 101 19 -19 24 -16 24 11 0 19 14 40 31 46 26 10 25 15 -5 38 -54 39 -15 59 43 22 56 -37 91 -42 91 -13 0 11 -13 20 -30 20 -45 0 -36 54 11 66 44 11 147 -32 126 -52 -7 -7 2 -19 20 -26 18 -7 33 -28 33 -48 0 -19 17 -40 37 -45 35 -9 35 -6 5 56 -66 136 -201 191 -322 133z m-279 -284 c30 0 22 -34 -10 -47 -19 -7 -25 -1 -18 18 7 18 -1 29 -21 29 -18 0 -32 9 -32 19 0 11 -16 14 -35 7 -31 -12 -32 -9 -7 21 26 32 30 32 66 -6 21 -23 46 -41 57 -41z"/> <path d="M3442 796 c-1 -18 15 -45 35 -60 20 -14 46 -53 58 -86 17 -46 23 -51 25 -20 2 22 6 55 9 73 5 22 -11 36 -49 44 -31 6 -61 27 -66 47 -8 32 -10 32 -12 2z"/> <path d="M5467 783 c18 -20 33 -53 32 -75 0 -35 -3 -35 -38 7 -21 25 -47 45 -59 45 -12 0 -22 9 -22 20 0 11 -13 20 -30 20 -44 0 -28 -42 39 -105 35 -33 72 -51 92 -45 20 7 39 -2 46 -19 21 -55 53 -33 53 35 0 50 -14 77 -59 110 -72 54 -99 57 -54 7z"/> <path d="M1727 707 c0 -15 8 -27 18 -27 11 0 14 -13 8 -29 -7 -19 -1 -25 18 -18 16 6 29 18 29 27 0 8 18 20 40 26 66 17 45 45 -37 47 -52 1 -76 -7 -76 -26z"/> <path d="M4909 712 c38 -32 38 -32 0 -60 -36 -27 -35 -28 17 -25 67 4 65 46 -6 88 -47 27 -47 27 -11 -3z"/> <path d="M1939 678 c-15 -27 -36 -38 -61 -32 -21 6 -33 3 -28 -6 6 -9 1 -42 -11 -73 l-22 -56 57 49 c31 28 63 61 72 75 23 35 55 31 41 -5 -7 -20 2 -31 26 -33 115 -10 161 -9 200 5 31 11 47 7 55 -15 7 -18 25 -26 42 -20 36 14 36 15 8 -64 -12 -35 -31 -63 -43 -63 -11 0 -37 -19 -58 -43 -20 -24 -37 -32 -37 -19 0 46 41 102 76 102 25 1 27 5 8 17 -15 10 -20 31 -11 53 9 25 7 32 -10 22 -12 -8 -23 -32 -23 -53 0 -22 -9 -39 -20 -39 -10 0 -25 -22 -32 -50 -7 -27 -20 -45 -30 -39 -10 6 -18 -3 -18 -20 0 -17 -17 -31 -38 -31 -20 0 -50 -20 -67 -45 -25 -38 -34 -40 -61 -18 -35 28 -114 1 -114 -40 0 -14 13 -11 33 6 25 20 36 21 41 3 10 -29 125 5 159 48 13 15 47 31 76 34 28 3 70 25 92 49 22 24 48 43 57 43 8 0 40 34 69 75 54 77 75 50 32 -41 -20 -43 -19 -43 13 1 48 66 96 60 79 -10 -7 -30 -18 -77 -25 -105 -6 -27 -26 -65 -44 -84 -67 -71 -86 -99 -74 -111 23 -23 175 143 165 180 -5 19 0 40 10 47 11 7 15 25 9 40 -6 15 -3 28 7 28 10 0 18 16 18 35 0 45 11 89 28 118 9 13 -2 27 -25 33 -22 6 -40 2 -40 -9 0 -11 -9 -14 -20 -7 -12 7 -16 21 -10 30 6 9 1 23 -10 30 -11 7 -28 -7 -37 -32 -14 -39 -18 -40 -29 -10 -8 19 -22 29 -32 23 -10 -6 -14 7 -8 29 12 46 14 45 -64 23 -33 -9 -77 -11 -99 -3 -21 7 -73 7 -115 -1 -42 -7 -82 -6 -88 4 -18 29 -45 19 -69 -25z"/> <path d="M5212 663 c-6 -10 7 -34 28 -53 58 -53 49 -70 -25 -49 -87 25 -108 24 -108 -7 0 -14 16 -27 37 -29 20 -1 78 -31 129 -65 113 -76 243 -110 177 -47 -22 22 -56 45 -76 53 -20 7 -34 30 -31 49 11 70 -101 196 -131 148z"/> <path d="M3243 609 c-13 -28 -22 -66 -21 -85 1 -25 4 -27 12 -6 19 48 91 121 109 110 9 -6 17 -1 17 11 0 45 -94 21 -117 -30z"/> <path d="M3789 598 c-10 -32 -3 -53 21 -70 30 -22 31 -30 7 -55 -15 -15 -40 -47 -56 -70 -22 -31 -35 -36 -55 -20 -33 28 -33 18 4 -69 23 -55 24 -73 5 -81 -14 -5 -5 -11 20 -11 32 -2 45 9 45 37 0 81 79 71 177 -24 51 -49 120 -103 153 -120 110 -55 292 -120 304 -108 6 7 -3 18 -21 25 -18 7 -33 23 -33 35 0 24 -89 73 -132 73 -12 0 -34 14 -48 30 -14 17 -42 30 -62 30 -21 0 -38 9 -38 20 0 11 -12 20 -28 20 -15 0 -38 14 -52 30 -37 44 -19 39 187 -60 103 -50 198 -90 210 -90 13 0 21 -7 19 -15 -3 -8 9 -35 25 -60 35 -56 319 -70 319 -16 0 34 -93 111 -135 111 -68 0 -169 69 -206 142 -43 85 -207 221 -248 206 -16 -6 -31 10 -39 41 -7 29 -27 51 -45 51 -30 0 -29 -4 3 -40 44 -49 23 -78 -31 -44 -21 13 -52 24 -69 24 -16 0 -30 10 -30 21 0 33 -56 82 -69 61 -14 -23 7 -82 30 -82 9 0 8 -29 -3 -65 -16 -55 -12 -70 24 -100 32 -27 35 -35 11 -35 -52 0 -93 77 -71 136 12 31 12 55 1 62 -11 7 -22 34 -26 60 -9 64 -50 76 -68 20z m412 -309 c49 -60 -22 -29 -96 42 l-75 70 73 -41 c41 -23 85 -55 98 -71z"/> <path d="M4786 593 c6 -16 1 -38 -12 -51 -16 -16 -13 -22 12 -22 19 0 34 4 34 8 0 5 5 22 11 38 6 16 -3 34 -22 42 -23 9 -30 4 -23 -15z"/> <path d="M2100 545 c0 -9 -31 -33 -70 -54 -38 -20 -70 -44 -70 -52 0 -25 52 -36 82 -17 21 13 22 17 2 18 -15 0 -20 10 -13 21 7 12 25 17 39 12 14 -5 35 12 47 39 14 29 15 48 3 48 -11 0 -20 -7 -20 -15z"/> <path d="M5874 520 c11 -41 69 -63 107 -39 34 21 -14 69 -74 73 -32 2 -40 -6 -33 -34z"/> <path d="M3547 390 c11 -102 8 -105 -47 -50 -47 47 -80 52 -80 11 0 -16 -18 -39 -40 -51 -36 -19 -38 -16 -27 40 13 66 -22 85 -39 20 -9 -36 -108 -92 -128 -73 -5 5 3 28 17 50 14 23 21 46 15 52 -14 14 -118 -34 -118 -55 0 -9 9 -11 20 -4 11 7 20 -1 20 -17 0 -16 14 -34 32 -41 23 -9 29 -27 20 -61 -7 -27 -3 -54 8 -61 11 -7 20 5 20 26 0 38 58 106 62 71 12 -127 27 -153 49 -85 13 43 28 65 85 129 38 42 69 36 54 -11 -7 -23 -4 -40 9 -40 11 0 21 10 21 22 0 17 7 17 27 1 15 -13 34 -16 43 -8 9 8 11 1 5 -17 -16 -46 12 -82 54 -66 45 18 30 138 -23 182 -32 26 -32 28 -2 19 25 -8 31 -2 22 23 -40 112 -91 108 -79 -6z"/> <path d="M4970 420 c-7 -11 -3 -20 9 -20 11 0 21 -11 22 -25 1 -38 204 -248 214 -221 4 13 20 19 35 13 49 -18 10 69 -47 105 -29 19 -84 65 -122 101 -74 71 -91 79 -111 47z"/> <path d="M2667 336 c-27 -46 -34 -84 -25 -126 l13 -60 3 56 c1 31 16 83 33 117 44 83 23 94 -24 13z"/> <path d="M5760 381 c0 -29 33 -43 68 -29 49 19 38 48 -18 48 -27 0 -50 -8 -50 -19z"/> <path d="M5950 340 c12 -19 1 -23 -46 -16 -40 6 -66 -1 -73 -18 -13 -35 -64 -33 -78 4 -7 17 -30 30 -52 30 -39 0 -39 -2 -5 -63 37 -67 95 -89 138 -53 18 14 26 14 26 0 0 -11 -11 -24 -24 -29 -33 -11 0 -55 40 -53 19 0 24 5 12 10 -31 13 -10 108 24 108 38 0 75 74 45 92 -15 9 -18 5 -7 -12z"/> <path d="M5440 226 c48 -34 120 -50 120 -28 0 17 -102 62 -138 62 -21 0 -15 -11 18 -34z"/> <path d="M2530 180 c-7 -22 -26 -40 -41 -40 -23 0 -22 -8 6 -37 19 -20 43 -32 52 -27 10 5 5 17 -10 26 -21 14 -20 17 6 18 21 0 32 17 32 50 0 60 -27 66 -45 10z"/> <path d="M3053 183 c-18 -20 -33 -41 -33 -48 0 -22 63 -2 81 26 41 65 5 81 -48 22z"/> <path d="M3354 78 c-60 -65 -62 -87 -7 -67 32 13 102 129 76 129 -7 -1 -38 -28 -69 -62z"/> <path d="M4880 89 c0 -40 38 -55 71 -28 43 35 36 54 -21 54 -28 0 -50 -12 -50 -26z"/> <path d="M5709 79 c-7 -13 -30 -18 -51 -13 -23 6 -38 0 -38 -16 0 -17 -22 -25 -60 -22 -33 2 -60 -3 -60 -12 0 -9 62 -16 138 -16 129 0 138 3 128 40 -13 50 -39 68 -57 39z"/> </g> </svg> 